<?xml version="1.0" encoding="utf-8"?>
<!-- Generator: Adobe Illustrator 17.0.0, SVG Export Plug-In . SVG Version: 6.00 Build 0)  -->
<!DOCTYPE svg PUBLIC "-//W3C//DTD SVG 1.1//EN" "http://www.w3.org/Graphics/SVG/1.1/DTD/svg11.dtd">
<svg version="1.1" id="圖層_1" xmlns="http://www.w3.org/2000/svg" xmlns:xlink="http://www.w3.org/1999/xlink" x="0px" y="0px"
	 width="240px" height="525px" viewBox="0 0 240 525" enable-background="new 0 0 240 525" xml:space="preserve">
<g>
	<g>
		<g>
			<path fill="#24201C" d="M164.595,506.216c22.977,3.544,49.59,5.029,71.699-3.126c1.349-0.498,0.766-2.673-0.598-2.17
				c-21.692,8.002-47.926,6.609-70.502,3.127C163.774,503.827,163.164,505.995,164.595,506.216L164.595,506.216z"/>
		</g>
	</g>
	<g>
		<path fill="none" d="M188.078,481.871c-1.074,1.221-2.26,2.315-3.538,3.27c1.784-0.63,3.568-1.26,5.352-1.89
			C189.28,482.81,188.677,482.346,188.078,481.871z"/>
		<path fill="none" d="M186.513,480.252c-3.084-2.607-6.168-5.213-9.252-7.82c-5.181,1.654-10.383,3.243-15.616,4.712
			c1.325,3.026,2.65,6.052,3.975,9.078C173.293,488.88,181.276,486.205,186.513,480.252z"/>
		<path fill="none" d="M175.629,459.209c0.291-0.491,0.581-0.983,0.872-1.474c-1.198,0.486-2.397,0.972-3.595,1.458
			c-6.473,2.626-12.946,5.251-19.419,7.876"/>
		<path fill="none" d="M172.16,489.512c-1.777,0.043-3.574-0.146-5.359-0.591c0.314,0.717,0.628,1.434,0.941,2.151
			c0.377-0.133,0.755-0.267,1.132-0.4C169.969,490.285,171.065,489.899,172.16,489.512z"/>
		<path fill="none" d="M230.284,494.767c-7.44-2.594-15.201-2.037-22.798-3.701c-5.566-1.218-10.622-3.287-15.287-6.25
			c-8.254,2.914-16.509,5.829-24.763,8.743c-0.431,0.152-1.081-0.085-1.27-0.517c-0.649-1.483-1.298-2.965-1.947-4.448
			c-1.588,1.948,0.898,12.794,1.258,14.266c0.991,4.046-1.347,8.416,3.371,10.946c6.029,3.234,13.483,3.691,20.194,3.772
			c7.43,0.09,14.9-0.369,22.249-1.49c7.147-1.091,15.872-2.402,20.682-8.436c1.429-1.793,2.474-3.83,2.969-6.078
			C235.757,497.867,233.796,495.991,230.284,494.767z"/>
		<path fill="none" d="M163.383,460.642c-4.948-10.576-9.287-21.487-13.092-32.518c-3.796-11.007-8.387-23.266-8.33-35.085
			c0.022-4.682,0.958-9.311,0.995-14.019c0.05-6.351-0.223-12.702-0.651-19.038c-0.526-7.79-1.199-15.578-2.107-23.333
			c-0.169-1.44,2.083-1.423,2.25-0.001c0.908,7.754,1.604,15.543,2.107,23.333c0.409,6.332,0.752,12.69,0.651,19.038
			c-0.071,4.423-0.971,8.831-0.992,13.222c-0.058,11.916,4.363,24.177,8.246,35.284c3.826,10.943,8.078,21.774,13.003,32.274
			c4.088-1.658,8.175-3.316,12.262-4.973c-1.889-4.956-3.772-9.916-5.652-14.876c-3.071-8.107-6.138-16.215-9.165-24.338
			c-2.136-5.731-5.345-12.061-5.961-18.212c-1.134-11.318,3.495-21.961,3.835-33.155c0.308-10.133-0.929-20.291-2.674-30.257
			c-2.196-12.544-5.043-25.05-8.683-37.262c-7.586,0.458-41.72,2.45-40.683,8.426c2.751,15.856,9.137,31.377,13.698,46.775
			c5.342,18.033,6.875,36.016,7.461,54.764c0.601,19.227,8.555,38.594,16.442,55.891c0.638,1.399,1.286,2.794,1.954,4.179
			C153.325,464.722,158.354,462.682,163.383,460.642z"/>
		<path fill="none" d="M148.751,469.319c-0.309,3.396-0.342,8.721,3.905,7.829c2.371-0.497,4.719-1.114,7.054-1.773
			c0.034-0.013,0.063-0.03,0.099-0.041c3.513-1.063,7.027-2.127,10.54-3.19c1.301-0.394,5.118-2.326,7.053-2.141
			c2.542-0.805,5.081-1.621,7.616-2.449c-1.913-3.233-3.826-6.466-5.739-9.698c-0.876,1.967-2.494,3.822-3.65,5.775"/>
		<path fill="#24201C" d="M222.57,490.561c-4.812-0.777-9.678-0.745-14.485-1.665c-5.663-1.083-10.891-3.363-15.6-6.549
			c-3.985-3.45-7.993-7.754-12.363-10.825c2.297-0.742,4.59-1.492,6.881-2.245c0.683-0.224,1.057-1.003,0.672-1.653
			c-2.514-4.248-5.027-8.496-7.541-12.744c-0.067-0.113-0.165-0.214-0.277-0.303c-0.052-0.416-0.148-0.839-0.313-1.273
			c-2.374-6.234-4.74-12.47-7.1-18.709c-3.006-7.946-6.004-15.895-8.955-23.862c-0.956-2.58-1.907-5.162-2.825-7.755
			c-2.112-5.964-1.831-11.877-0.902-18.051c1.467-9.75,3.614-18.497,3.222-28.444c-0.384-9.748-1.954-19.466-3.795-29.031
			c-2.085-10.832-4.662-21.638-7.849-32.203c-0.017-0.057-0.042-0.105-0.064-0.155c-0.006-0.019-0.016-0.036-0.023-0.055
			c-0.012-0.024-0.026-0.045-0.039-0.068c-0.157-0.332-0.467-0.578-0.958-0.547c-12.152,0.772-24.742,1.708-36.539,4.844
			c-3.126,0.831-7.81,2.05-7.201,6.089c0.98,6.501,3.29,12.914,5.19,19.184c4.819,15.907,10.683,31.713,13.347,48.162
			c1.892,11.683,2.267,23.293,2.636,35.079c0.31,9.912,3.138,19.78,6.175,29.149c3.477,10.727,7.755,21.333,12.731,31.464
			c-0.37,3.377-0.561,8.088,2.165,10.527c2.31,2.068,7.92-0.398,10.308-1.047c0.137-0.037,0.273-0.079,0.41-0.116
			c1.253,2.863,2.507,5.726,3.76,8.589c-2.686,1.43-1.717,7.478-1.385,9.694c0.427,2.851,1.015,5.668,1.717,8.464
			c0.051,0.205,0.094,0.346,0.131,0.448c-0.615,1.151-0.606,2.539-0.578,3.798c0.158,6.746,7.863,8.815,13.264,9.905
			c8.966,1.81,18.46,1.37,27.51,0.564c13.116-1.169,31.321-3.402,33.618-19.258C238.517,493.033,227.22,491.311,222.57,490.561z
			 M177.26,472.433c3.084,2.607,6.168,5.213,9.252,7.82c-5.237,5.953-13.22,8.628-20.893,5.971c-1.325-3.026-2.65-6.052-3.975-9.078
			C166.877,475.676,172.08,474.087,177.26,472.433z M188.078,481.871c0.599,0.475,1.202,0.939,1.814,1.381 M129.901,406.691
			c-0.586-18.748-2.119-36.731-7.461-54.764c-4.561-15.398-10.947-30.919-13.698-46.775c-1.037-5.977,33.096-7.968,40.683-8.426
			c3.641,12.213,6.487,24.718,8.683,37.262c1.745,9.966,2.982,20.124,2.674,30.257c-0.34,11.194-4.969,21.837-3.835,33.155
			c0.616,6.151,3.825,12.481,5.961,18.212c3.027,8.123,6.094,16.231,9.165,24.338c1.879,4.96,3.763,9.919,5.652,14.876
			c-4.088,1.658-8.175,3.316-12.262,4.973c-4.924-10.5-9.177-21.331-13.003-32.274c-3.883-11.107-8.304-23.368-8.246-35.284
			c0.021-4.391,0.921-8.799,0.992-13.222c0.101-6.348-0.242-12.706-0.651-19.038c-0.503-7.79-1.199-15.579-2.107-23.333
			c-0.167-1.422-2.419-1.439-2.25,0.001c0.908,7.755,1.581,15.543,2.107,23.333c0.428,6.336,0.701,12.687,0.651,19.038
			c-0.037,4.708-0.973,9.337-0.995,14.019c-0.057,11.819,4.534,24.078,8.33,35.085c3.805,11.032,8.144,21.943,13.092,32.518
			c-5.029,2.04-10.058,4.079-15.087,6.119c-0.668-1.385-1.315-2.78-1.954-4.179C138.456,445.285,130.502,425.918,129.901,406.691z
			 M178.699,456.903c1.913,3.233,4.406,7.418,6.319,10.651c-2.535,0.828-5.073,1.644-7.616,2.449
			c-2.705,0.856-5.752,1.748-7.053,2.141c-3.513,1.063-7.027,2.127-10.54,3.19c-0.036,0.011-0.065,0.028-0.099,0.041
			c-2.335,0.659-4.683,1.276-7.054,1.773c-4.247,0.892-4.214-4.433-3.905-7.829 M188.448,481.838l3.694,2.771l0.058,0.207
			c4.665,2.963,9.72,5.032,15.287,6.25c7.597,1.664,15.358,1.107,22.798,3.701c3.512,1.224,5.473,3.1,4.658,6.807
			c-0.495,2.248-1.54,4.285-2.969,6.078c-4.81,6.034-13.535,7.345-20.682,8.436c-7.349,1.121-14.819,1.58-22.249,1.49
			c-6.711-0.081-14.165-0.538-20.194-3.772c-4.718-2.53-2.38-6.9-3.371-10.946c-0.361-1.472-2.846-12.318-1.258-14.266
			C177.753,492.066,188.448,481.838,188.448,481.838z"/>
	</g>
	<g>
		<path fill="none" d="M82.997,474.556c0.082-0.354,0.163-0.708,0.245-1.062c-6.675-1.338-13.35-2.675-20.026-4.014
			c-0.11,0.286-0.22,0.573-0.329,0.86c5.141,2.489,10.743,3.869,16.501,4.135C80.586,474.53,81.791,474.558,82.997,474.556z"/>
		<path fill="none" d="M78.612,489.649c-2.87-1.814-9.175-2.401-11.722-3.085c-2.207-0.594-4.413-1.194-6.615-1.809"/>
		<path fill="none" d="M69.714,494.704"/>
		<path fill="none" d="M74.79,486.322c1.181,0.307,3.764,0.456,5.216,1.207c0.815-3.533,1.629-7.065,2.443-10.597
			c-7.025-0.025-14.104-1.491-20.367-4.494c-0.526,1.373-1.052,2.745-1.578,4.118c-0.596,1.556-1.192,3.112-1.788,4.668
			c-0.113,0.294-0.188,0.505-0.249,0.682C63.878,483.481,69.337,484.905,74.79,486.322z"/>
		<path fill="none" d="M78.431,465.072c2.661,0.359,8.289,0.877,11.453-0.871c-9.565-0.016-19.445-4.122-27.726-8.805
			c0.05,0.076,0.111,0.164,0.19,0.268c0.468,0.621,0.935,1.242,1.403,1.863"/>
		<path fill="none" d="M56.913,484.178c-2.875,2.954-5.691,6-8.281,9.205c14.338,13.902,35.93,21.603,55.61,17.545
			c0.268-0.267,0.541-0.53,0.787-0.811c0.79-0.902,1.444-1.772,1.215-1.983c-2.869-2.654-7.892-3.017-11.444-4.467
			c-2.589-1.057-5.104-2.523-7.265-4.301c-2.75-2.263-5.184-4.895-7.192-7.841"/>
		<path fill="none" d="M47.196,495.122c-1.283,1.524-2.837,3.405-2.085,4.472c1.179,1.671,2.616,3.178,4.129,4.55
			c11.511,10.442,28.351,17.102,43.874,12.942c2.504-0.671,5.131-1.792,7.484-3.279C81.395,516.227,61.092,508.511,47.196,495.122z"
			/>
		<path fill="none" d="M112.859,299.927c-0.113-0.217-0.143-0.486-0.027-0.798c0.599-1.616,1.197-3.232,1.795-4.849
			c-8.58,1.4-17.174,3.186-25.495,5.66c-3.365,1-16.053,3.792-15.204,8.941c1.114,6.759,2.484,13.477,3.68,20.222
			c1.68,9.472,3.273,18.974,4.391,28.532c0.876,7.487,2.051,15.564,0.828,23.081c-2.482,15.257-7.943,30.429-12.227,45.246
			c-2.181,7.545-4.383,15.084-6.606,22.617c-0.444,1.503-0.889,3.007-1.334,4.51c4.085,2.346,8.582,4.567,13.252,6.203
			c3.886-18.56,7.859-37.113,12.227-55.567c2.609-11.019,5.822-21.655,6.585-33.028c0.65-9.689,0.745-19.459,0.254-29.16
			c-0.073-1.451,2.177-1.444,2.25-0.001c0.512,10.119,0.485,20.37-0.351,30.467c-0.92,11.109-4.025,21.525-6.568,32.32
			c-4.357,18.495-8.356,37.078-12.25,55.675c4.573,1.401,9.265,2.168,13.859,1.89c0.043-0.126,0.102-0.24,0.133-0.375
			c0.658-2.823,1.186-5.676,1.72-8.524c1.785-9.512,3.476-19.043,5.445-28.519c1.64-7.893,3.087-16.159,6.329-23.585
			c8.741-20.024,9.934-43.189,9.658-64.753C115.052,324.362,114.322,310.861,112.859,299.927z"/>
		<path fill="none" d="M60.83,457.37c-1.215,4.192-2.907,10.153-1.977,10.744c0.665,0.423,1.345,0.815,2.03,1.195"/>
		<path fill="#24201C" d="M115.057,299.577c0.792-2.137,1.582-4.273,2.374-6.41c0.33-0.892-0.626-1.502-1.384-1.384
			c-12.118,1.895-24.694,4.252-36.064,8.947c-3.07,1.268-8.988,3.721-8.341,7.998c0.952,6.296,2.278,12.545,3.409,18.81
			c1.805,9.992,3.476,20.016,4.698,30.098c0.925,7.631,2.183,16.062,0.691,23.7c-3.042,15.569-8.216,30.924-12.621,46.143
			c-2.103,7.267-4.23,14.527-6.372,21.783c-0.304,1.028-0.708,2.008-1.026,2.959c-0.339,0.077-0.629,0.323-0.72,0.783
			c-0.997,5.022-2.336,9.978-3.771,14.89c-0.15,0.514,0.105,0.981,0.517,1.27c1.164,0.818,2.381,1.56,3.631,2.247
			c-1.325,3.458-2.65,6.916-3.975,10.374c-0.013,0.013-0.028,0.021-0.041,0.034c-3.916,3.993-7.703,8.149-11.096,12.598
			c-1.059,1.388-3.223,3.67-2.29,5.514c1,1.978,2.778,3.675,4.334,5.202c12.11,11.879,30.053,17.921,46.701,14.121
			c3.661-0.835,8.753-3.141,12.028-6.352c0.194-0.044,0.486,0.048,0.581-0.126c0.746-1.372,0.915-0.822,0.746-1.372
			c0.534-0.697,0.986-1.423,1.307-2.182c1.389-3.284-5.105-5.176-7.839-5.961c-5.565-1.598-10.275-4.135-14.426-8.2
			c-1.642-1.608-3.018-3.459-4.293-5.367c0.984-4.269,1.968-8.537,2.952-12.805c2.834-0.118,5.643-0.457,8.367-1.038
			c0.524-0.112,0.774-0.603,0.826-1.085c0.414-3.819,0.317-7.673,0.02-11.496c0.795-1.418,0.885-4.13,1.149-5.454
			c0.824-4.145,1.571-8.305,2.341-12.46c1.824-9.85,3.663-19.704,5.92-29.465c1.95-8.432,5.424-16.077,7.932-24.312
			c3.061-10.054,4.48-20.602,5.353-31.048C118.358,340.384,117.733,319.636,115.057,299.577z M82.997,474.556
			c-1.206,0.002-2.411-0.026-3.61-0.081c-5.758-0.266-11.36-1.646-16.501-4.135l-2.003-1.031c-0.685-0.381-1.365-0.772-2.03-1.195
			c-0.93-0.591,0.762-6.552,1.977-10.744l0.793-2.668c8.282,4.683,18.696,9.483,28.261,9.499c0,0,2.084-0.347,1.979,1.038
			c0.126,2.407,0.142,4.807,0.031,7.226c-0.021,0.454-0.065,0.907-0.104,1.36c-2.134,0.391-4.301,0.599-6.474,0.685L82.997,474.556z
			 M60.504,476.557c0.526-1.373,1.052-2.746,1.578-4.118c6.263,3.003,13.341,4.468,20.367,4.494
			c-0.814,3.532-1.629,7.064-2.443,10.597c-1.452-0.752-4.035-0.9-5.216-1.207c-5.453-1.417-10.912-2.841-16.323-4.415
			c0.062-0.177,0.137-0.388,0.249-0.682C59.312,479.669,59.908,478.113,60.504,476.557z M93.114,517.086
			c-15.523,4.16-32.363-2.5-43.874-12.942c-1.513-1.372-2.95-2.879-4.129-4.55c-0.752-1.067,0.802-2.948,2.085-4.472
			c13.896,13.389,34.199,21.105,53.402,18.685C98.245,515.294,95.618,516.415,93.114,517.086z M60.275,484.755
			c2.202,0.614,4.408,1.215,6.615,1.809c2.546,0.684,8.852,1.272,11.722,3.085l1.731,1.876c2.008,2.947,4.442,5.578,7.192,7.841
			c2.161,1.778,4.676,3.244,7.265,4.301c3.552,1.45,8.575,1.813,11.444,4.467c0.229,0.211-0.425,1.081-1.215,1.983
			c-0.246,0.28-0.519,0.544-0.787,0.811c-19.68,4.057-41.272-3.643-55.61-17.545c2.59-3.205,5.406-6.251,8.281-9.205
			C57.587,483.482,60.275,484.755,60.275,484.755z M105.545,400.885c-3.242,7.426-4.689,15.692-6.329,23.585
			c-1.969,9.476-3.66,19.007-5.445,28.519c-0.534,2.848-1.062,5.701-1.72,8.524c-0.031,0.134-0.09,0.249-0.133,0.375
			c-4.593,0.278-9.286-0.489-13.859-1.89c3.894-18.597,7.893-37.18,12.25-55.675c2.543-10.795,5.648-21.211,6.568-32.32
			c0.836-10.097,0.863-20.348,0.351-30.467c-0.073-1.443-2.323-1.45-2.25,0.001c0.491,9.701,0.396,19.471-0.254,29.16
			c-0.763,11.373-3.976,22.009-6.585,33.028c-4.369,18.453-8.341,37.006-12.227,55.567c-4.669-1.636-9.167-3.857-13.252-6.203
			c0.445-1.503,0.89-3.006,1.334-4.51c2.223-7.533,4.425-15.072,6.606-22.617c4.284-14.817,9.745-29.989,12.227-45.246
			c1.223-7.517,0.048-15.594-0.828-23.081c-1.118-9.558-2.711-19.06-4.391-28.532c-1.196-6.745-2.566-13.463-3.68-20.222
			c-0.849-5.149,11.839-7.941,15.204-8.941c8.322-2.474,16.916-4.259,25.495-5.66c-0.598,1.616-1.197,3.232-1.795,4.849
			c-0.116,0.313-0.086,0.581,0.027,0.798c1.463,10.934,2.193,24.435,2.344,36.205C115.479,357.696,114.286,380.861,105.545,400.885z
			"/>
	</g>
	<g>
		<path fill="#18EDCE" d="M180.741,293h-29.179l-21.398-55.142l3.602-50.215c0,0,22.89,52.618,24.477,59.913
			S180.741,293,180.741,293z"/>
		<g>
			<path d="M180.741,291.62c-5.852,0-11.703,0-17.555,0c-3.214,0-6.429,0-9.643,0c-0.645,0-1.291,0-1.936,0
				c0.988,0,1.28,1.443,0.664-0.142c-4.904-12.608-9.808-25.217-14.712-37.825c-1.978-5.085-3.955-10.17-5.933-15.255
				c-0.725-1.865,0.029-5.756,0.227-8.505c0.984-13.706,1.969-27.411,2.953-41.117c0.029-0.399,0.057-0.799,0.086-1.198
				c-0.699,0.189-1.398,0.379-2.096,0.568c8.041,18.455,16.437,36.921,23.216,55.884c6.156,17.218,14.954,33.25,23.759,49.282
				c0.699,1.272,2.642,0.137,1.943-1.136c-8.928-16.256-17.622-32.477-23.946-49.895c-6.801-18.731-15.071-37.009-23.028-55.271
				c-0.488-1.12-2.025-0.428-2.096,0.568c-0.671,9.346-1.343,18.693-2.014,28.039c-0.422,5.878-0.844,11.756-1.266,17.634
				c-0.127,1.766-0.661,3.803-0.003,5.494c7.04,18.099,14.079,36.199,21.119,54.298c0.184,0.474,0.545,0.826,1.085,0.826
				c9.726,0,19.453,0,29.179,0C182.192,293.87,182.192,291.62,180.741,291.62z"/>
		</g>
	</g>
	<g>
		<path fill="#18EDCE" d="M133.766,189.425c0,0,21.686,37.492,25.577,45.786c3.891,8.294,24.316,31.802,23.343,58.71
			c-12.158-5.189-18.48-8.593-18.48-8.593s-18.48-36.352-19.453-47.598S133.766,189.425,133.766,189.425z"/>
		<g>
			<path d="M132.795,189.993c7.951,13.748,15.945,27.5,23.405,41.521c10.718,20.144,25.863,38.269,25.361,62.407
				c0.564-0.324,1.129-0.648,1.693-0.971c-6.092-2.618-12.168-5.311-18.055-8.369c-0.451-0.234,0.091,0.408-0.508-0.786
				c-0.759-1.511-1.506-3.028-2.249-4.547c-5.384-11.004-10.71-22.183-14.634-33.803c-3.188-9.441-3.922-19.928-6.204-29.649
				c-2.095-8.926-4.364-17.817-6.753-26.67c-0.378-1.399-2.548-0.805-2.17,0.598c2.39,8.853,4.64,17.747,6.753,26.67
				c2.461,10.395,3.313,21.371,6.824,31.455c3.965,11.392,9.269,22.374,14.564,33.195c0.676,1.38,1.514,4.567,3.005,5.357
				c5.936,3.146,12.123,5.843,18.291,8.492c0.769,0.33,1.674-0.044,1.693-0.971c0.287-13.807-4.435-26.72-10.972-38.692
				c-4.394-8.047-9.803-15.437-14.026-23.576c-7.532-14.517-15.89-28.641-24.076-42.796
				C134.012,187.602,132.067,188.734,132.795,189.993z"/>
		</g>
	</g>
	<g>
		<path fill="#18EDCE" d="M100.864,118.036c0,0,42.596,53.441,35.705,117.175c-19.535-22.83-43.988-104.045-43.988-104.045
			L100.864,118.036z"/>
		<g>
			<path d="M100.068,118.831c8.118,10.226,14.512,22.125,20.005,33.905c11.966,25.665,18.246,54.153,15.37,82.475
				c0.64-0.265,1.28-0.53,1.921-0.796c-7.789-9.266-12.907-20.912-17.754-31.89c-5.892-13.344-10.983-27.046-15.806-40.807
				c-3.22-9.188-6.281-18.435-9.178-27.73c-0.27-0.866-0.537-1.733-0.802-2.6c-0.051-0.169-0.103-0.337-0.154-0.506
				c0.311,1.029,0.111,0.489,0.811-0.62c2.451-3.886,4.903-7.772,7.354-11.658c0.777-1.231-1.171-2.359-1.943-1.136
				c-2.451,3.886-4.903,7.772-7.354,11.658c-1.184,1.877-1.044,2.347-0.422,4.366c2.88,9.33,5.961,18.6,9.167,27.823
				c4.843,13.932,10.046,27.751,15.918,41.285c5.008,11.542,10.407,23.696,18.571,33.408c0.7,0.833,1.832,0.073,1.92-0.796
				c2.887-28.432-3.489-56.635-15.167-82.498c-5.591-12.382-12.387-24.791-20.868-35.473
				C100.757,116.104,99.176,117.708,100.068,118.831z"/>
		</g>
	</g>
	<g>
		<polygon fill="#18EDCE" points="89.566,104.095 100.864,118.036 99.496,131.166 84.299,119.86 		"/>
		<g>
			<path d="M88.771,104.891c3.542,4.371,7.085,8.742,10.627,13.113c0.944,1.164,0.327,0.169,0.303,0.399
				c-0.148,1.418-0.295,2.836-0.443,4.254c-0.295,2.836-0.591,5.672-0.886,8.509c0.564-0.324,1.129-0.648,1.693-0.971
				c-4.914-3.656-9.829-7.313-14.743-10.969c-0.637-0.474-0.178,1.654,0.424-0.149c0.6-1.796,1.2-3.592,1.801-5.389
				c1.035-3.098,2.07-6.196,3.105-9.294c0.461-1.38-1.712-1.967-2.17-0.598c-1.756,5.255-3.512,10.509-5.267,15.764
				c-0.172,0.514,0.124,0.978,0.517,1.27c5.066,3.769,10.132,7.538,15.197,11.307c0.759,0.565,1.615-0.226,1.693-0.971
				c0.295-2.836,0.591-5.672,0.886-8.509c0.166-1.591,1.092-4.257-0.025-5.636c-3.707-4.574-7.414-9.148-11.121-13.722
				C89.448,102.172,87.866,103.775,88.771,104.891z"/>
		</g>
	</g>
	<g>
		<g>
			<path fill="#24201C" d="M76.672,20.958c1.605,2.753,3.104,5.569,4.462,8.452c1.628,3.456,1.158,4.492,4.309,6.606
				c3.683,2.469,7.291,5.086,10.624,8.013c1.18,1.037,3.628,2.624,2.22,4.189c-1.29,1.433-2.308,3.206-3.188,4.914
				c-0.257,0.498-0.152,0.939,0.176,1.363c1.37,1.772,2.739,3.544,4.109,5.315c0.076-0.589,0.152-1.178,0.228-1.767
				c-2.626,1.738-5.253,3.477-7.879,5.215c-0.846,0.56-0.631,2.226,0.568,2.096c3.014-0.327,6.434-0.862,8.675-3.064
				c-0.53,0-1.061,0-1.591,0c2.722,3.196,2.267,8.275,4.067,12.028c0.345,0.72,0.855,1.223,1.391,1.792
				c1.522,1.616-1.087,4.911-2.093,5.983c-0.971,1.035-3.121,1.206-4.279,2.216c-7.919,6.905-12.217,19.749-10.966,29.984
				c0.475-0.362,0.949-0.723,1.424-1.085c-9.459-2.601-19.179-4.307-28.826-6.043c-2.608-0.469-5.218-0.925-7.831-1.365
				c0.219,0.037,0.754,1.325,0.38,0.023c-0.3-1.046-0.6-2.092-0.901-3.138c-2.062-7.184-4.124-14.368-6.185-21.552
				c-0.919-3.203-1.838-6.406-2.758-9.609c-0.295-1.029-0.59-2.057-0.886-3.086c-0.166-0.578-0.196-1.852-0.394-0.833
				c2.307-11.823,4.614-23.647,6.921-35.47c0.183-0.938,0.128-0.548,0.028-0.46c0.693-0.61,1.385-1.219,2.078-1.829
				c2.939-2.586,5.878-5.173,8.817-7.759c5.09-4.479,9.136-9.742,15.874-3.205C75.721,19.576,76.197,20.267,76.672,20.958
				c0.756,1.235,2.702,0.106,1.943-1.136c-2.929-4.788-8.159-7.166-13.673-5.478c-1.178,0.361-2.387,1.953-3.265,2.726
				c-2.762,2.43-5.523,4.86-8.285,7.291c-2.313,2.035-6.553,4.307-7.181,7.523c-1.169,5.991-2.338,11.981-3.507,17.972
				c-1.065,5.457-2.13,10.914-3.194,16.371c-0.501,2.567,1.018,5.517,1.716,7.951c3.155,10.992,6.309,21.983,9.464,32.975
				c0.1,0.348,0.408,0.723,0.786,0.786c12.327,2.06,24.794,4.126,36.853,7.441c0.64,0.176,1.515-0.343,1.424-1.085
				c-0.941-7.701,1.371-15.084,5.123-21.75c1.401-2.489,3.144-5.107,5.457-6.842c1.593-1.195,3.216-1.173,4.735-2.793
				c3.258-3.473,2.499-6.35,0.326-9.726c-2.545-3.953-1.176-8.676-4.419-12.483c-0.4-0.47-1.18-0.404-1.591,0
				c-1.756,1.726-4.716,2.148-7.084,2.405c0.189,0.699,0.379,1.398,0.568,2.096c2.626-1.738,5.253-3.477,7.879-5.215
				c0.659-0.436,0.683-1.177,0.228-1.767c-1.12-1.448-2.239-2.897-3.359-4.345c-1.191-1.54-0.704,0.625-0.173-0.359
				c0.981-1.818,2.409-3.196,3.497-4.918c1.703-2.694-3.219-6.133-4.815-7.48c-2.026-1.71-4.181-3.275-6.334-4.819
				c-1.112-0.797-4.886-2.75-5.092-3.634c-1.054-4.536-3.759-8.855-6.084-12.842C77.885,18.57,75.94,19.702,76.672,20.958z"/>
		</g>
	</g>
	<g>
		<g>
			<path fill="#24201C" d="M45.568,87.352c17.911,4.878,38.323,3.932,55.762-2.093c1.363-0.471,0.777-2.645-0.598-2.17
				c-17.058,5.893-37.031,6.868-54.565,2.093C44.764,84.801,44.17,86.971,45.568,87.352L45.568,87.352z"/>
		</g>
	</g>
	<g>
		<path fill="#020202" d="M76.87,19.131c0,0-16.052-8.266-22.713,24.435c15.562,26.166-8.289,31.749,11.439,60.452
			c-14.529,7.796-30.12,18.781-33.309,19.135c-3.189,0.354-9.922,2.835-13.82-11.339s-11.339-57.406-6.378-71.58
			S35.829,2.318,54.61,5.153S74.679,15.367,76.87,19.131z"/>
		<g>
			<path fill="#24201C" d="M77.438,18.16c-13.281-6.656-21.204,12.348-23.603,21.7c-0.934,3.64-0.847,3.81,0.871,7.001
				c1.753,3.255,2.932,6.747,3.603,10.373c0.947,5.113-0.127,10.289-1.08,15.308c-2.286,12.037,0.593,21.891,7.395,32.044
				c0.135-0.513,0.269-1.026,0.404-1.539c-9.898,5.371-19.23,11.671-29.022,17.215c-6.795,3.847-12.357,2.038-15.425-5.539
				c-2.827-6.982-3.816-15.113-5.106-22.481c-1.755-10.022-3.067-20.141-3.68-30.3c-0.441-7.323-0.84-15.347,1.72-22.346
				c3.416-9.337,10.157-17.792,17.484-24.352C40.228,6.981,50.225,4.572,62.111,7.93c7.051,1.992,10.425,5.753,13.788,11.769
				c0.708,1.266,2.651,0.132,1.943-1.136c-2.938-5.257-5.555-8.858-11.302-11.42C57.268,3.011,47.478,2.777,38.432,7.33
				c-15.9,8.003-28.437,26.463-29.079,44.218c-0.691,19.097,2.821,39.167,7.284,57.681c1.52,6.305,3.941,14.647,11.515,15.417
				c6.489,0.66,12.638-4.547,17.742-7.691c6.683-4.116,13.369-8.221,20.27-11.965c0.515-0.279,0.737-1.041,0.404-1.539
				c-6.469-9.655-9.285-18.859-7.168-30.31c1.603-8.668,2.125-16.223-1.395-24.565c-1.231-2.918-2.779-4.79-1.999-8.117
				c0.837-3.568,2.013-7.062,3.536-10.394c1.695-3.71,4.154-7.227,7.699-9.35c2.573-1.54,6.412-1.94,9.063-0.612
				C77.595,20.751,78.735,18.81,77.438,18.16z"/>
		</g>
	</g>
	<g>
		<g>
			<path fill="#24201C" d="M75.745,35.628c-0.002,0.047-0.007,0.094-0.012,0.142c0.043-0.408-0.026,0.101-0.046,0.192
				c-0.098,0.442-0.265,0.846-0.481,1.241c-0.921,1.688-2.735,2.542-4.518,3.01c-1.402,0.368-0.807,2.539,0.598,2.17
				c3.156-0.829,6.557-3.16,6.71-6.754C78.056,34.176,75.806,34.182,75.745,35.628L75.745,35.628z"/>
		</g>
	</g>
	<g>
		<polygon fill="#020202" points="74,26.414 65.277,28.895 59.944,38.463 61.706,41.297 66.967,31.73 74,28.895 		"/>
		<g>
			<path fill="#24201C" d="M73.446,25.33c-1.711,0.494-3.423,0.988-5.134,1.482c-0.981,0.283-3.578,0.507-4.154,1.552
				c-1.75,3.177-3.5,6.355-5.25,9.532c-0.19,0.345-0.217,0.792,0,1.136c0.598,0.945,1.196,1.89,1.795,2.835
				c0.435,0.687,1.528,0.771,1.943,0c1.572-2.92,3.144-5.841,4.716-8.761c0.439-0.817,0.687-0.668-0.183-0.312
				c0.69-0.283,1.38-0.565,2.071-0.848c1.598-0.655,3.197-1.309,4.795-1.964c0.472-0.193,0.826-0.538,0.826-1.085
				c0-0.827,0-1.654,0-2.48c0-1.451-2.25-1.451-2.25,0c0,0.827,0,1.654,0,2.48c0.275-0.362,0.551-0.723,0.826-1.085
				c-1.598,0.655-3.197,1.309-4.795,1.964c-1.006,0.412-2.415,0.676-2.963,1.694c-1.662,3.087-3.323,6.174-4.985,9.262
				c0.648,0,1.295,0,1.943,0c-0.523-0.826-1.045-1.651-1.568-2.477c-0.517-0.817-0.366,1.031-0.15,0.638
				c0.182-0.33,0.364-0.66,0.545-0.99c1.275-2.314,2.549-4.629,3.824-6.943c0.177-0.322,0.354-0.643,0.531-0.965
				c0.415-0.753,0.341-0.221-0.333-0.027c0.783-0.226,1.566-0.452,2.349-0.678c2.066-0.596,4.133-1.193,6.199-1.789
				C75.436,27.098,74.844,24.926,73.446,25.33z"/>
		</g>
	</g>
	<g>
		<g>
			<path fill="#24201C" d="M95.502,52.728c-7.014,5.413-10.476-16.987-10.945-20.518c-0.188-1.417-2.441-1.435-2.25,0
				c0.709,5.34,4.569,29.995,14.33,22.461C97.769,53.798,96.651,51.842,95.502,52.728L95.502,52.728z"/>
		</g>
	</g>
	<g>
		<path fill="#18EDCE" d="M89.192,114.024c0,0,15.877,23.951,18.212,35.623s13.52,34.042,17.897,49.604s22.371,70.029,26.261,81.215
			c0.973,19.939-4.863,52.522-8.267,54.954c-20.425,4.863-69.799,7.781-69.799,7.781l-23.088-9.726c0,0,1.945-17.507,0-29.179
			s-10.821-70.029-10.821-70.029L56.73,103.448C56.731,103.446,70.591,102.231,89.192,114.024z"/>
		<g>
			<path d="M88.221,114.592c3.552,5.373,6.858,10.919,9.98,16.551c2.411,4.348,4.665,8.804,6.482,13.435
				c1.624,4.139,2.333,8.576,3.73,12.798c3.857,11.656,9.13,22.811,13.283,34.363c2.677,7.448,4.677,15.166,7.048,22.718
				c5.727,18.239,11.702,36.402,17.753,54.535c0.987,2.958,1.98,5.915,2.983,8.868c1.434,4.218,1.106,8.549,0.939,12.972
				c-0.433,11.431-1.97,22.938-4.497,34.094c-0.692,3.055-1.386,6.427-2.962,9.172c-1.032,1.796-9.646,2.105-11.671,2.418
				c-10.325,1.596-20.745,2.612-31.148,3.546c-7.717,0.693-15.444,1.282-23.174,1.794c-4.17,0.276-5.943-0.907-10.264-2.728
				c-3.514-1.48-7.028-2.961-10.542-4.441c-1.303-0.549-2.605-1.098-3.908-1.646c-2.152-0.906-0.633-0.383-0.689,0.155
				c0.965-9.138,1.514-18.768,0.131-27.88c-2.306-15.181-4.752-30.343-7.078-45.522c-1.091-7.119-2.178-14.238-3.263-21.357
				c-0.352-2.31-0.7-3.714-0.488-5.338c1.242-9.478,2.484-18.955,3.726-28.433c3.897-29.741,7.795-59.482,11.692-89.223
				c0.524-3.999,1.048-7.998,1.572-11.997c-0.375,0.375-0.75,0.75-1.125,1.125c11.077-0.866,22.825,4.816,31.894,10.424
				c1.238,0.765,2.367-1.182,1.136-1.943c-9.401-5.813-21.574-11.626-33.029-10.731c-0.675,0.053-1.04,0.478-1.125,1.125
				c-2.9,22.133-5.801,44.267-8.701,66.4c-1.969,15.027-3.938,30.054-5.908,45.082c-0.631,4.817-1.262,9.634-1.894,14.451
				c-0.208,1.585-0.841,3.602-0.597,5.207c2.295,15.088,4.602,30.175,6.93,45.258c1.205,7.807,2.401,15.617,3.667,23.414
				c1.613,9.931,1.265,20.234,0.18,30.215c-0.058,0.536,0.397,0.904,0.826,1.085c5.61,2.363,11.22,4.727,16.83,7.09
				c3.573,1.505,5.74,2.735,9.496,2.491c17.388-1.129,34.793-2.571,52.056-4.959c4.192-0.58,8.371-1.257,12.517-2.103
				c2.668-0.544,3.652-0.921,4.685-3.464c3.288-8.09,4.348-17.303,5.483-25.892c0.741-5.605,1.227-11.243,1.491-16.891
				c0.191-4.083,0.694-8.567-0.645-12.475c-2.365-6.902-4.652-13.832-6.942-20.759c-4.363-13.199-8.675-26.415-12.882-39.665
				c-3.741-11.782-7.002-23.686-11.504-35.21c-3.066-7.848-6.391-15.593-9.266-23.515c-2.094-5.769-3.07-11.852-5.494-17.496
				c-4.246-9.887-9.843-19.289-15.772-28.256C89.367,112.252,87.418,113.377,88.221,114.592z"/>
		</g>
	</g>
	<g>
		<path fill="#18EDCE" d="M91.016,277.426c0.729,6.565,5.836,11.672,8.024,17.507c3.283-2.553,8.024-1.824,11.672-3.647
			c4.012-2.188,5.836-6.93,9.848-8.024c-0.365-2.918-7.295-14.225-9.483-14.954c-4.377-1.824-15.684,5.836-18.602,8.754"/>
		<g>
			<path d="M89.931,277.725c1.072,6.58,5.529,11.491,8.024,17.507c0.263,0.635,0.981,1.105,1.653,0.672
				c3.57-2.3,8.179-1.425,11.672-3.647c3.491-2.221,5.649-6.427,9.579-7.911c0.603-0.228,0.918-0.739,0.786-1.384
				c-0.703-3.415-2.953-6.655-4.792-9.541c-1.181-1.853-3.145-5.512-5.477-6.199c-6.47-1.906-15.322,4.898-19.696,9.043
				c-1.055,1,0.539,2.588,1.591,1.591c4.057-3.845,10.625-8.472,16.38-8.699c3.869-0.153,9.172,11.235,9.824,14.404
				c0.262-0.461,0.524-0.923,0.786-1.384c-3.513,1.327-5.528,4.208-8.165,6.744c-3.62,3.481-9.484,2.375-13.624,5.041
				c0.551,0.224,1.102,0.448,1.653,0.672c-2.48-5.98-6.961-10.98-8.024-17.507C91.868,275.697,89.7,276.306,89.931,277.725
				L89.931,277.725z"/>
		</g>
	</g>
	<g>
		<path fill="#FFFFFF" d="M73.441,342.334c0,0-3.336-52.872-6.011-63.449"/>
		<g>
			<path fill="#24201C" d="M74.566,342.334c-0.586-9.258-1.263-18.511-2.002-27.758c-0.948-11.856-1.244-24.383-4.049-35.99
				c-0.341-1.41-2.51-0.812-2.17,0.598c2.757,11.41,3.027,23.735,3.968,35.392c0.747,9.246,1.417,18.5,2.002,27.758
				C72.407,343.775,74.657,343.784,74.566,342.334L74.566,342.334z"/>
		</g>
	</g>
	<g>
		<path fill="#18EDCE" d="M122.748,257.895l15.684,45.792c0,0-2.553,25.532-25.532,26.261
			c-20.425-5.471-35.379-13.495-35.379-13.495l-4.025-37.568c0,0,20.383,16.219,32.468,10.942S123.113,266.449,122.748,257.895z"/>
		<g>
			<path d="M121.663,258.194c3.998,11.673,7.996,23.346,11.994,35.019c0.895,2.612,3.859,8.779,3.621,10.719
				c-0.655,5.331-2.806,10.597-5.799,15.015c-2.602,3.841-6.367,6.712-10.665,8.395c-7.281,2.85-14.418-0.334-21.37-2.758
				c-5.393-1.881-10.687-4.053-15.879-6.429c-1.362-0.623-2.71-1.275-4.05-1.942c-1.543-0.769-0.991-0.897-0.883,0.104
				c-1.308-12.205-2.615-24.411-3.923-36.616c-0.029-0.272-0.058-0.544-0.087-0.816c-0.64,0.265-1.28,0.53-1.921,0.796
				c8.287,6.543,19.756,13.558,30.715,12.072c13.795-1.871,20.724-22.039,20.457-33.857c-0.033-1.449-2.283-1.452-2.25,0
				c0.268,11.852-6.671,30.914-20.524,31.852c-9.339,0.632-19.735-6.073-26.807-11.658c-0.666-0.526-2.038-0.302-1.92,0.796
				c1.286,12.002,2.572,24.005,3.857,36.007c0.417,3.895,4.772,4.57,8.075,6.057c4.761,2.144,9.629,4.044,14.543,5.805
				c5.834,2.091,11.887,4.803,18.13,3.914c12.968-1.845,20.919-14.42,22.528-26.551c0.354-2.673-2.036-6.712-2.873-9.158
				c-2.548-7.44-5.097-14.881-7.645-22.321c-1.717-5.014-3.435-10.028-5.152-15.043
				C123.366,256.231,121.192,256.817,121.663,258.194z"/>
		</g>
	</g>
	<g>
		<path fill="#18EDCE" d="M107.404,235.238c0,0-0.045-0.123-0.13-0.357c-1.316-3.635-12.242-34.052-14.07-47.302
			c-1.945-14.103-16.759-76.443-19.708-79.292s-20.111-7.803-30.596,0s-14.862,26.77-16.321,40.873s-5.836,42.309-3.891,51.549
			s8.267,25.775,9.24,29.179s23.343,15.562,28.693,31.124c-3.404,1.945-2.432,0-2.432,0s8.267,21.715,10.699,22.286
			s51.063-5.573,51.063-25.404c0-15.849-3.404-25.584-3.404-25.584s-7.295,3.9-8.571,5.42c-0.572-2.492-0.617-2.615-0.617-2.615"/>
		<g>
			<path d="M108.489,234.939c-5.585-15.378-11.798-31.42-14.2-47.659c-2.265-15.314-6.201-30.485-9.878-45.504
				c-1.961-8.008-3.992-16.004-6.281-23.925c-0.879-3.042-1.604-8.46-4.193-10.66c-5.594-4.753-16.164-4.794-22.87-3.618
				c-9.892,1.736-16.075,10.371-19.542,19.151c-5.316,13.462-6.208,27.956-7.939,42.181c-1.488,12.226-4.414,26.075-1.482,38.269
				c1.632,6.787,4.045,13.407,6.344,19.989c1.156,3.309,1.741,7.095,4.366,9.561c4.196,3.942,9.058,7.19,13.375,11.009
				c2.585,2.287,4.996,4.754,7.242,7.374c1.475,1.721,6.731,8.074,5.843,10.205c-0.723,0-1.446,0-2.17,0
				c1.376,3.605,2.837,7.177,4.349,10.726c1.256,2.951,3.355,10.656,6.645,12.132c1.921,0.862,4.852,0.036,6.822-0.236
				c5.232-0.722,10.408-1.774,15.519-3.101c10.022-2.603,22.172-6.542,28.338-15.484c3.765-5.46,2.291-13.14,1.648-19.25
				c-0.496-4.711-1.254-9.588-2.793-14.088c-0.24-0.7-0.985-1.031-1.653-0.672c-2.983,1.604-6.366,3.195-8.799,5.596
				c0.627,0.165,1.254,0.331,1.88,0.496c-0.201-0.868-0.381-1.754-0.617-2.615c-0.383-1.398-2.554-0.803-2.17,0.598
				c0.236,0.861,0.416,1.747,0.617,2.615c0.194,0.839,1.298,1.071,1.88,0.496c2.274-2.244,5.547-3.74,8.344-5.244
				c-0.551-0.224-1.102-0.448-1.653-0.672c1.075,3.142,1.668,6.466,2.206,9.732c1.054,6.404,2.865,15.25-0.442,21.24
				c-4.812,8.716-17.59,12.376-26.448,14.83c-6.764,1.874-14.524,3.979-21.619,3.792c-1.711-0.045-5.128-9.825-5.764-11.301
				c-1.45-3.363-2.816-6.767-4.122-10.189c-0.417-1.092-1.736-1.04-2.17,0c-1.294,3.106,2.88,1.868,4.084,1.27
				c0.419-0.208,0.682-0.826,0.517-1.27c-3.484-9.368-11.022-16.332-18.579-22.528c-2.89-2.369-5.929-4.566-8.722-7.052
				c-2.283-2.033-2.81-5.776-3.788-8.568c-3.238-9.253-7.279-18.841-7.293-28.769c-0.016-10.989,1.669-22.039,3.004-32.924
				c2.552-20.805,4.232-56.6,32.815-55.602c4.322,0.151,9.213,1.147,12.978,3.374c1.383,0.818,1.768,3.174,2.233,4.57
				c2.258,6.776,3.99,13.743,5.76,20.658c4.395,17.175,8.758,34.529,11.7,52.023c2.859,16.999,8.631,33.47,14.504,49.642
				C106.811,236.89,108.985,236.306,108.489,234.939L108.489,234.939z"/>
		</g>
	</g>
	<g>
		<g>
			<path fill="#24201C" d="M60.92,262.097c9.125-2.173,19.656-3.703,27.626-8.975c1.326-0.877,2.236-2.229,3.564-3.162
				c1.874-1.316,3.953-2.37,5.977-3.431c4.157-2.18,7.02-5.086,10.684-8.004c1.135-0.904-0.468-2.485-1.591-1.591
				c-3.795,3.021-6.894,5.903-11.209,8.166c-2.978,1.562-5.955,3.19-8.175,5.751c-3.02,3.483-10.489,4.82-14.769,5.959
				c-4.212,1.121-8.465,2.108-12.705,3.118C58.911,260.264,59.51,262.433,60.92,262.097L60.92,262.097z"/>
		</g>
	</g>
	<g>
		<path fill="#FFFFFF" d="M67.43,268.307c3.161,1.459,6.565,2.918,9.726,4.134c-1.702-1.945-3.647-3.647-4.863-5.836
			c3.161,0.243,6.079,1.702,8.997,2.188"/>
		<g>
			<path fill="#24201C" d="M66.862,269.279c3.292,1.509,6.619,2.934,9.995,4.247c1.128,0.439,1.781-1.118,1.095-1.88
				c-1.64-1.822-3.401-3.502-4.687-5.608c-0.324,0.564-0.648,1.129-0.971,1.693c2.99,0.341,5.759,1.568,8.698,2.148
				c1.417,0.28,2.021-1.889,0.598-2.17c-3.145-0.621-6.093-1.864-9.296-2.229c-0.865-0.098-1.381,1.023-0.971,1.693
				c1.387,2.272,3.268,4.096,5.039,6.063c0.365-0.627,0.73-1.254,1.095-1.88c-3.195-1.242-6.342-2.592-9.458-4.02
				C66.688,266.736,65.544,268.675,66.862,269.279L66.862,269.279z"/>
		</g>
	</g>
	<g>
		<path fill="#FFFFFF" d="M37.4,143.932c8.389-4.742,13.86-6.201,23.708-6.201c-8.389,0.729-17.143,1.824-25.167,4.012
			c7.659-4.742,18.602-5.106,25.532-10.577"/>
		<g>
			<path fill="#24201C" d="M37.967,144.904c7.482-4.139,14.592-5.969,23.14-6.047c0-0.75,0-1.5,0-2.25
				c-8.586,0.772-17.112,1.868-25.466,4.052c0.289,0.685,0.578,1.371,0.867,2.056c8.062-4.657,17.922-5.019,25.532-10.577
				c1.159-0.846,0.038-2.8-1.136-1.943c-7.582,5.538-17.475,5.924-25.532,10.577c-1.116,0.644-0.365,2.378,0.867,2.056
				c8.159-2.134,16.48-3.217,24.868-3.972c1.421-0.128,1.473-2.264,0-2.25c-8.928,0.082-16.462,2.031-24.276,6.354
				C35.562,143.663,36.697,145.606,37.967,144.904L37.967,144.904z"/>
		</g>
	</g>
	<g>
		<g>
			<path fill="#24201C" d="M23.549,163.927c4.187,16.576,9.793,32.309,17.94,47.365c1.243,2.296,3.047,4.526,5.214,5.999
				c4.331,2.943,7.614,4.904,9.735,10.009c2.968,7.145,3.372,15.107,6.138,22.34c0.513,1.341,2.689,0.759,2.17-0.598
				c-2.77-7.245-3.487-15.055-6.138-22.34c-0.891-2.449-2.151-4.717-3.877-6.666c-2.421-2.734-6.289-3.948-8.917-6.523
				c-2.769-2.713-4.317-7.066-6.074-10.452c-2.393-4.612-4.414-9.411-6.274-14.259c-3.182-8.29-5.575-16.872-7.747-25.473
				C25.364,161.923,23.194,162.52,23.549,163.927L23.549,163.927z"/>
		</g>
	</g>
	<g>
		<path fill="#FFFFFF" d="M23.54,197.913c3.647,9.848,10.577,17.872,14.954,27.355"/>
		<g>
			<path fill="#24201C" d="M22.455,198.212c3.851,9.846,10.522,18.131,15.068,27.624c0.626,1.308,2.566,0.166,1.943-1.136
				c-4.458-9.31-11.066-17.434-14.841-27.087C24.102,196.279,21.926,196.859,22.455,198.212L22.455,198.212z"/>
		</g>
	</g>
	<g>
		<path fill="#18EDCE" d="M71.075,105.595c0,0,15.687,21.195,19.273,38.337c0,0,16.427,6.703,20.961,18.196
			C96.225,125.39,95.632,112.12,71.075,105.595z"/>
		<g>
			<path d="M70.104,106.163c7.326,9.948,13.811,21.105,17.748,32.83c0.503,1.498,0.783,5.426,2.126,5.995
				c1.627,0.689,3.195,1.514,4.742,2.363c6.459,3.543,12.63,8.445,15.618,15.346c0.504,1.165,2.538,0.311,2.056-0.867
				c-5.452-13.341-9.599-27.76-16.907-40.254c-5.427-9.279-13.942-14.281-24.112-17.066c-1.402-0.384-1.996,1.787-0.598,2.17
				c10.124,2.772,17.865,7.65,23.225,16.813c7.036,12.03,10.972,26.085,16.223,38.935c0.685-0.289,1.371-0.578,2.056-0.867
				c-2.637-6.092-7.607-10.493-13.035-14.108c-2.127-1.417-4.389-2.641-6.689-3.752c-2.508-1.212-1.604-2.312-2.535-5.306
				c-3.706-11.921-10.599-23.352-17.975-33.367C71.196,103.872,69.242,104.992,70.104,106.163z"/>
		</g>
	</g>
	<g>
		<g>
			<path fill="#24201C" d="M75.213,18.499c4.376,9.564,2.333,23.014-5.172,30.466c-6.708,6.662-19.227,4.473-27.463,8.26
				c-1.317,0.606-0.173,2.545,1.136,1.943c10.292-4.733,22.639-1.71,30.403-11.441c6.368-7.982,7.196-21.281,3.039-30.364
				C76.553,16.045,74.614,17.19,75.213,18.499L75.213,18.499z"/>
		</g>
	</g>
	<g>
		<g>
			<path fill="#24201C" d="M42.847,8.587c-11.155,1.977-34.137,9.817-29.178,25.13c0.445,1.374,2.618,0.786,2.17-0.598
				c-4.444-13.723,17.755-20.617,27.607-22.363C44.872,10.504,44.265,8.335,42.847,8.587L42.847,8.587z"/>
		</g>
	</g>
	<g>
		<g>
			<path fill="#24201C" d="M54.157,26.309c1.451,0,1.451-2.25,0-2.25S52.706,26.309,54.157,26.309L54.157,26.309z"/>
		</g>
	</g>
	<path fill="#020202" stroke="#24201C" stroke-width="0.75" stroke-miterlimit="10" d="M69.718,10.078"/>
	<path fill="#020202" stroke="#24201C" stroke-width="0.75" stroke-miterlimit="10" d="M68.483,9.333"/>
	<path fill="#020202" stroke="#24201C" stroke-width="0.75" stroke-miterlimit="10" d="M72.154,11.974
		c8.735,6.122,23.326,22.216,26.621,33.139c2.135,1.796,2.135,1.796,2.135,1.796s3.241,16.061,2.5,24.331l-1.32-6.613l-1.315-2.703
		l-0.947-2.976l-2.57-6.223l1.914-3.82c0,0,1.157-2.895-2.724-6.037c-3.882-3.142-12.785-9.45-12.785-9.45l-8.388-17.361
		L72.154,11.974z"/>
</g>
</svg>
