<?xml version="1.0" encoding="utf-8"?>
<!-- Generator: Adobe Illustrator 17.0.0, SVG Export Plug-In . SVG Version: 6.00 Build 0)  -->
<!DOCTYPE svg PUBLIC "-//W3C//DTD SVG 1.1//EN" "http://www.w3.org/Graphics/SVG/1.1/DTD/svg11.dtd">
<svg version="1.1" id="line_x5F_facr1" xmlns="http://www.w3.org/2000/svg" xmlns:xlink="http://www.w3.org/1999/xlink" x="0px"
	 y="0px" width="569.828px" height="594px" viewBox="0 0 569.828 594" enable-background="new 0 0 569.828 594"
	 xml:space="preserve">
<path id="line" fill="none" stroke="#231815" stroke-width="2" stroke-linecap="round" stroke-linejoin="round" stroke-miterlimit="10" d="
	M564.18,169.646c-4.915,56.448-80.496,81.891-131.148,80.703c-0.922-0.947-1.856-1.881-2.802-2.802
	c-0.223,0.351-0.535-10.531-0.145-10.083c49.773-28.897,90.515,10.897,136.609,24.095c0.725,0.034-5.569-7.502-5.865-7.27
	c-10.813,14.496-33.518,41.042-44.221,61.286c-51.854-42.252-98.126,40.934-108.933,86.263c23.37-1.746,25.619-4.141,41.315-15.987
	c-14.509-4.066-23.951-9.948-32.917-14.003c32.31,20.52,53.509,12.255,52.4-28.025c-11.807,9.551-12.712,11.386-21.428,24.23
	c0.947,0.922,1.881,1.856,2.802,2.802c36.737,4.265,54.678-18.756,51.99-52.51c7.901,29.765,14.561,60.771,23.677,88.942
	c5.9-5.345,16.726-9.774,24.31-18.535c-34.116,33.888-25.339,109.797-72.53,133.456c-45.106,22.614-97.331-46.776-117.261,28.15
	c-0.059,0.078,18.118-0.319,18.75,0c-13.05-14.274-20.881-9.86-38.233-18.77c1.662,10.91-4.736,28.986-3.436,41.948
	c-2.254-0.348,3.745,3.445,2.444-0.903c-27.597,4.519-16.728-1.21-44.286,17.983c-35.412-42.536-0.168-120.345-33.624-155.349
	c-49.254-51.532-92.102,26.665-113.989,70.317c35.419-13.271,60.691-31.952,57.95-77.118c-8.771,39.53-0.598,33.656,22.485,49.039
	c6.045-26.7,8.38-22.856-5.67-44.696c-17.477,17.069-14.776,19.052-16.471,44.621c56.443,40.564-39.252,68.746-78.389,64.377
	c-0.922-0.947-1.856-1.881-2.802-2.802c-8.696-90.128,38.603-116.555,103.398-156.29c-30.182-46.476-81.479,11.361-84.06-47.922
	c9.394-3.608,69.161-14.744,55.761,14.212c-13.853,29.935-37.789,7.379-58.917,25.222c-31.738,26.803-55.725,82.438-89.126,94.796
	c-25.483-79.032,84.399-116.169,144.826-113.999c-0.23,2.767,1.747,11.797,3.416,13.669C122.864,428.12,98.66,380.718,73.2,494.445
	c-61.236-85.447,27.078-136.318,95.978-159.597c29.751-10.052,34.337,2.951,70.466-22.918c31.522-22.57,28.219-73.167,77.92-66.816
	c130.165,16.632,30.02,208.379,67.818,274.418c5.12-1.582,18.687-0.467,24.24,0c-52.927-52.879-69.571-53.44-27.601-147.549
	c9.451-21.193,26.682-62.844,44.226-79.093c20.097-18.613,58.131-14.36,75.722-33.575
	c100.081-109.324-74.503-155.508-162.185-137.576c-147.505,30.166-115.52,151.89-244.704,203.434
	c-27.223,10.862-54.109,18.121-83.257,17.803c-59.9-137.903,189.021-104.826,251.282-108.114
	C449.354,225.025,501.11-76.292,258.511,30.1C214.551,49.379,66.622,143.873,98.915,212.441
	c27.335,58.04,151.163,10.168,167.605-42.771c37.044-119.264-138.148-54.059-189.97-28.05"/>
</svg>
