<?xml version="1.0" encoding="utf-8"?>
<!-- Generator: Adobe Illustrator 17.0.0, SVG Export Plug-In . SVG Version: 6.00 Build 0)  -->
<!DOCTYPE svg PUBLIC "-//W3C//DTD SVG 1.1//EN" "http://www.w3.org/Graphics/SVG/1.1/DTD/svg11.dtd">
<svg version="1.1" id="圖層_1" xmlns="http://www.w3.org/2000/svg" xmlns:xlink="http://www.w3.org/1999/xlink" x="0px" y="0px"
	 width="140px" height="135px" viewBox="0 0 140 135" enable-background="new 0 0 140 135" xml:space="preserve">
<g>
	<path d="M21.241,1.633c3.188,0,4.991,0.105,5.411,0.315c0.419,0.21,2.3,5.225,5.64,15.044s5.754,16.601,7.243,20.341h2.691
		c0.324,0.688,0.487,1.394,0.487,2.119c0,0.668-0.125,1.136-0.373,1.403c-0.248,0.268-0.649,0.401-1.202,0.401H26.509
		c-0.325-0.84-0.487-1.651-0.487-2.434c0-0.515,0.143-0.892,0.429-1.131c0.287-0.238,0.706-0.358,1.26-0.358h1.26
		c-0.286-1.374-1.021-4.113-2.205-8.216H14.628c-1.069,4.008-1.737,6.747-2.004,8.216h2.72c0.324,0.688,0.487,1.394,0.487,2.119
		c0,0.668-0.125,1.136-0.373,1.403c-0.248,0.268-0.64,0.401-1.174,0.401H1.802c-0.325-0.84-0.487-1.651-0.487-2.434
		c0-0.515,0.138-0.892,0.415-1.131c0.276-0.238,0.691-0.358,1.246-0.358h1.546c1.355-3.683,3.402-9.662,6.141-17.936
		S15.219,6.094,16.117,4.31C17.014,2.525,18.722,1.633,21.241,1.633z M15.888,24.335h9.476c-2.92-9.619-4.557-14.429-4.91-14.429
		C20.101,9.906,18.579,14.716,15.888,24.335z"/>
	<path d="M55.252,15.718c2.08-1.298,4.08-2.219,5.998-2.763s3.526-0.816,4.824-0.816c2.691,0,4.69,0.592,5.998,1.775
		c1.307,1.184,1.961,3.569,1.961,7.157c0,9.391,0.172,14.453,0.516,15.188c0.343,0.735,1.088,1.093,2.233,1.073
		c0.286,0.688,0.43,1.403,0.43,2.147c0,0.687-0.225,1.155-0.673,1.403c-0.449,0.248-1.303,0.372-2.562,0.372
		c-3.092,0-5.048-0.047-5.869-0.143c-0.821-0.095-1.384-0.405-1.689-0.931c-0.306-0.524-0.458-1.407-0.458-2.648V27.427
		c0-3.894-0.358-6.503-1.074-7.83c-0.716-1.326-1.875-1.989-3.479-1.989c-1.355,0-2.424,0.396-3.206,1.188
		c-0.783,0.792-1.174,2.448-1.174,4.967v5.754c0,2.405,0.047,5.01,0.143,7.815h3.407c0.324,0.63,0.487,1.336,0.487,2.119
		c0,0.668-0.139,1.136-0.415,1.403c-0.277,0.268-0.816,0.401-1.618,0.401H45.547c-0.344-0.802-0.515-1.555-0.515-2.262
		c0-0.591,0.133-1.016,0.4-1.274s0.697-0.387,1.289-0.387h2.09c0.095-3.149,0.143-6.403,0.143-9.762
		c0-5.344-0.253-8.503-0.758-9.477c-0.506-0.973-1.389-1.46-2.648-1.46c-0.344-0.763-0.515-1.527-0.515-2.291
		c0-0.687,0.252-1.135,0.758-1.345s3.66-0.401,9.462-0.573C55.348,13.228,55.348,14.325,55.252,15.718z"/>
	<path d="M104.638,14.802c0,0.878-0.391,1.957-1.173,3.235c-0.783,1.279-2.085,3.35-3.908,6.212
		c-1.823,2.863-3.436,5.454-4.838,7.773s-2.229,3.994-2.476,5.024h4.237c1.642,0,4.476-0.706,8.503-2.119
		c0.591,1.26,0.878,2.5,0.859,3.722c0,0.955-0.258,1.627-0.773,2.019c-0.515,0.392-1.651,0.587-3.407,0.587H82.737
		c-1.375,0-2.062-0.639-2.062-1.918c0-0.668,0.329-1.489,0.988-2.462c0.658-0.973,2.171-3.073,4.538-6.298
		c2.366-3.225,4.137-5.883,5.311-7.973c1.174-2.09,2.076-3.898,2.706-5.425h-5.583c-1.336,0-3.56,0.716-6.67,2.147
		c-0.936-1.354-1.403-2.729-1.403-4.123c0-0.763,0.219-1.331,0.658-1.703c0.439-0.372,1.278-0.559,2.52-0.559h18.208
		c0.897,0,1.57,0.129,2.019,0.387C104.414,13.585,104.638,14.077,104.638,14.802z"/>
	<path d="M122.674,41.828c-4.275,0-7.497-1.117-9.663-3.35c-2.166-2.233-3.249-5.468-3.249-9.706c0-5.287,1.312-9.385,3.937-12.296
		c2.624-2.911,6.312-4.366,11.065-4.366c4.275,0,7.491,1.117,9.648,3.35s3.235,5.468,3.235,9.706c0,5.287-1.308,9.386-3.922,12.296
		C131.11,40.373,127.427,41.828,122.674,41.828z M124.02,36.875c1.546,0,2.695-0.615,3.45-1.847
		c0.754-1.231,1.131-3.622,1.131-7.171c0-3.875-0.415-6.642-1.246-8.302c-0.83-1.661-2.143-2.491-3.937-2.491
		c-1.546,0-2.696,0.615-3.45,1.846s-1.131,3.622-1.131,7.172c0,3.875,0.415,6.642,1.246,8.302
		C120.914,36.045,122.226,36.875,124.02,36.875z"/>
	<path d="M23.933,92.544c3.244,0,6.231-0.877,8.961-2.634c1.278,1.413,1.918,2.796,1.918,4.151c0,1.298-1.341,2.286-4.022,2.963
		c-2.682,0.677-5.816,1.017-9.405,1.017c-5.802,0-10.116-1.269-12.94-3.808s-4.237-7.281-4.237-14.229
		c0-7.615,1.689-13.217,5.067-16.805c3.378-3.588,8.168-5.382,14.372-5.382c4.065,0,6.88,0.291,8.446,0.873
		c1.565,0.583,2.348,1.646,2.348,3.192c0,1.202-0.611,2.5-1.833,3.894c-3.607-1.642-7.062-2.462-10.364-2.462
		c-2.768,0-4.824,0.993-6.169,2.978c-1.346,1.985-2.019,5.554-2.019,10.708c0,6.088,0.73,10.202,2.19,12.339
		S20.268,92.544,23.933,92.544z"/>
	<path d="M42.599,68.525c0-0.745-0.034-1.68-0.1-2.806c-0.067-1.126-0.206-2.095-0.415-2.906c-0.21-0.811-0.578-1.335-1.103-1.574
		s-1.217-0.358-2.075-0.358c-0.325-0.783-0.487-1.565-0.487-2.348c0-0.802,0.295-1.312,0.887-1.532
		c0.592-0.219,2.52-0.329,5.783-0.329c2.023,0,3.402,0.081,4.137,0.243c0.734,0.163,1.159,0.463,1.274,0.902
		c0.114,0.439,0.171,1.059,0.171,1.861v11.337c1.203-0.688,2.639-1.303,4.309-1.847c1.67-0.544,3.345-0.816,5.024-0.816
		c2.5,0,4.404,0.592,5.711,1.775c1.307,1.184,1.961,3.569,1.961,7.157c0,9.391,0.172,14.453,0.516,15.188
		c0.343,0.735,1.088,1.093,2.233,1.073c0.286,0.688,0.429,1.403,0.429,2.147c0,0.687-0.224,1.155-0.672,1.403
		c-0.449,0.248-1.303,0.372-2.562,0.372c-3.092,0-5.049-0.047-5.869-0.143c-0.821-0.095-1.384-0.405-1.689-0.931
		c-0.306-0.524-0.458-1.407-0.458-2.648V83.641c0-3.894-0.358-6.503-1.074-7.83c-0.716-1.326-1.875-1.989-3.479-1.989
		c-1.355,0-2.424,0.396-3.207,1.188s-1.174,2.448-1.174,4.967v5.754c0,2.405,0.048,5.01,0.144,7.815h3.407
		c0.324,0.63,0.487,1.336,0.487,2.119c0,0.668-0.139,1.136-0.415,1.403c-0.277,0.268-0.816,0.401-1.618,0.401H39.192
		c-0.344-0.802-0.516-1.555-0.516-2.262c0-0.591,0.133-1.016,0.401-1.274c0.267-0.258,0.697-0.387,1.289-0.387h2.09
		c0.095-3.149,0.143-6.107,0.143-8.875C42.599,84.671,42.599,68.525,42.599,68.525z"/>
	<path d="M89.264,68.324c3.97,0,6.852,0.902,8.646,2.706s2.691,4.652,2.691,8.546c0,1.928-0.382,3.302-1.146,4.123
		c-0.763,0.821-2.433,1.231-5.01,1.231h-10.65c0.058,2.5,0.62,4.461,1.689,5.883c1.068,1.422,2.949,2.133,5.64,2.133
		c2.634,0,5.344-0.763,8.131-2.291c0.992,0.974,1.489,2.023,1.489,3.149c0,1.527-1.122,2.591-3.364,3.192
		c-2.243,0.601-4.872,0.901-7.888,0.901c-5.191,0-8.961-1.049-11.309-3.149c-2.347-2.1-3.521-5.563-3.521-10.393
		c0-5.02,1.321-8.946,3.965-11.781S84.817,68.324,89.264,68.324z M88.119,73.277c-1.413,0-2.491,0.572-3.235,1.717
		c-0.744,1.146-1.126,3.14-1.145,5.984h1.518c2.118,0,3.736-0.062,4.853-0.186s1.77-0.334,1.961-0.63
		c0.19-0.296,0.287-0.788,0.287-1.475c0-1.718-0.373-3.049-1.117-3.994C90.495,73.75,89.455,73.277,88.119,73.277z"/>
	<path d="M115.173,71.932c2.08-1.298,4.08-2.219,5.998-2.763s3.526-0.816,4.824-0.816c2.691,0,4.69,0.592,5.998,1.775
		c1.307,1.184,1.961,3.569,1.961,7.157c0,9.391,0.172,14.453,0.516,15.188c0.343,0.735,1.088,1.093,2.233,1.073
		c0.286,0.688,0.43,1.403,0.43,2.147c0,0.687-0.225,1.155-0.673,1.403c-0.449,0.248-1.303,0.372-2.562,0.372
		c-3.092,0-5.048-0.047-5.869-0.143c-0.821-0.095-1.384-0.405-1.689-0.931c-0.306-0.524-0.458-1.407-0.458-2.648V83.641
		c0-3.894-0.358-6.503-1.074-7.83c-0.716-1.326-1.875-1.989-3.479-1.989c-1.355,0-2.424,0.396-3.206,1.188
		c-0.783,0.792-1.174,2.448-1.174,4.967v5.754c0,2.405,0.047,5.01,0.143,7.815h3.407c0.324,0.63,0.487,1.336,0.487,2.119
		c0,0.668-0.139,1.136-0.415,1.403c-0.277,0.268-0.816,0.401-1.618,0.401h-13.484c-0.344-0.802-0.515-1.555-0.515-2.262
		c0-0.591,0.133-1.016,0.4-1.274s0.697-0.387,1.289-0.387h2.09c0.095-3.149,0.143-6.403,0.143-9.762
		c0-5.344-0.253-8.503-0.758-9.477c-0.506-0.973-1.389-1.46-2.648-1.46c-0.344-0.763-0.515-1.527-0.515-2.291
		c0-0.687,0.252-1.135,0.758-1.345s3.66-0.401,9.462-0.573C115.269,69.441,115.269,70.539,115.173,71.932z"/>
</g>
<g>
	<g>
		<path d="M9.048,119.269c0.033,0.248,0.033,0.518,0,0.811c0.553-0.267,1.102-0.487,1.646-0.659s1.134-0.259,1.772-0.259
			c1.256,0,2.183,0.347,2.778,1.04s0.894,1.789,0.894,3.286c0,2.012-0.444,3.483-1.333,4.414c-0.889,0.931-2.075,1.396-3.56,1.396
			c-0.371,0-0.669-0.013-0.894-0.039s-0.396-0.052-0.513-0.078c0,0.963,0.016,1.924,0.049,2.881h1.357
			c0.111,0.215,0.166,0.456,0.166,0.723c0,0.228-0.047,0.387-0.142,0.479s-0.278,0.137-0.552,0.137H5.923
			c-0.117-0.273-0.176-0.531-0.176-0.771c0-0.202,0.045-0.347,0.137-0.435s0.238-0.132,0.439-0.132h0.713
			c0.033-0.957,0.049-2.233,0.049-3.828v-3.799c0-1.823-0.086-2.9-0.259-3.232s-0.474-0.498-0.903-0.498
			c-0.117-0.26-0.176-0.521-0.176-0.781c0-0.234,0.086-0.387,0.259-0.459S7.192,119.327,9.048,119.269z M9.839,127.179
			c0.208,0.124,0.425,0.226,0.649,0.308s0.506,0.122,0.845,0.122c0.566,0,0.995-0.194,1.284-0.581s0.435-1.222,0.435-2.505
			c0-1.523-0.148-2.516-0.444-2.979s-0.708-0.693-1.235-0.693c-0.306,0-0.586,0.08-0.84,0.239s-0.433,0.418-0.537,0.776
			s-0.156,0.853-0.156,1.484v3.829H9.839z"/>
		<path d="M21.88,129.298c-1.458,0-2.557-0.381-3.296-1.143s-1.108-1.865-1.108-3.311c0-1.803,0.448-3.202,1.343-4.194
			s2.153-1.489,3.774-1.489c1.458,0,2.555,0.381,3.291,1.143s1.104,1.865,1.104,3.311c0,1.803-0.446,3.202-1.338,4.194
			S23.501,129.298,21.88,129.298z M22.339,127.608c0.527,0,0.919-0.21,1.177-0.63s0.386-1.235,0.386-2.446
			c0-1.322-0.142-2.266-0.425-2.832s-0.731-0.85-1.343-0.85c-0.527,0-0.919,0.21-1.177,0.63s-0.386,1.235-0.386,2.446
			c0,1.322,0.142,2.266,0.425,2.832S21.727,127.608,22.339,127.608z"/>
		<path d="M28.325,119.923c0-0.234,0.086-0.387,0.259-0.459s1.249-0.137,3.228-0.195c0.033,0.273,0.033,0.651,0,1.133
			c0.82-0.482,1.562-0.807,2.227-0.977s1.25-0.254,1.758-0.254c0.234,0,0.391,0.028,0.469,0.083s0.117,0.184,0.117,0.386
			c0,0.358-0.054,0.731-0.161,1.118s-0.241,0.636-0.4,0.747s-0.412,0.192-0.757,0.244s-0.545,0.065-0.601,0.039
			s-0.239-0.244-0.552-0.654c-0.482,0-0.851,0.174-1.108,0.522s-0.386,1.245-0.386,2.69c0,1.322,0.016,2.461,0.049,3.418H34
			c0.117,0.215,0.176,0.456,0.176,0.723c0,0.228-0.047,0.387-0.142,0.479s-0.278,0.137-0.552,0.137h-4.98
			c-0.117-0.273-0.176-0.531-0.176-0.771c0-0.202,0.045-0.347,0.137-0.435s0.238-0.132,0.439-0.132h0.713
			c0.033-0.957,0.049-2.067,0.049-3.33c0-1.823-0.086-2.9-0.259-3.232s-0.474-0.498-0.903-0.498
			C28.384,120.444,28.325,120.183,28.325,119.923z"/>
		<path d="M37.808,119.444h0.684l0.967-2.939c0.332,0.098,0.64,0.225,0.923,0.381s0.498,0.335,0.645,0.537s0.22,0.7,0.22,1.494
			v0.527h3.301c0.111,0.26,0.166,0.537,0.166,0.83c0,0.248-0.045,0.414-0.137,0.498s-0.267,0.127-0.527,0.127h-2.803v3.857
			c0,1.12,0.094,1.881,0.283,2.285s0.503,0.614,0.942,0.63s0.975-0.138,1.606-0.464c0.189,0.254,0.283,0.543,0.283,0.869
			c0,0.443-0.233,0.741-0.698,0.894s-1.19,0.229-2.173,0.229c-1.074,0-1.841-0.215-2.3-0.645s-0.688-1.263-0.688-2.5v-1.699
			c0-1.074-0.033-2.227-0.098-3.457h-0.996c-0.117-0.28-0.176-0.563-0.176-0.85c0-0.221,0.044-0.377,0.132-0.469
			S37.599,119.444,37.808,119.444z"/>
		<path d="M49.81,127.765h1.543c0.111,0.215,0.166,0.456,0.166,0.723c0,0.228-0.045,0.387-0.137,0.479s-0.277,0.137-0.557,0.137
			h-5.078c-0.111-0.273-0.166-0.531-0.166-0.771c0-0.202,0.045-0.347,0.137-0.435s0.238-0.132,0.439-0.132h0.801
			c0.033-0.833,0.049-1.722,0.049-2.666v-4.199h-1.26c-0.117-0.28-0.176-0.563-0.176-0.85c0-0.221,0.044-0.377,0.132-0.469
			s0.236-0.137,0.444-0.137h0.859c0.039-1.595,0.425-2.704,1.157-3.325s1.906-0.933,3.521-0.933c0.938,0,1.623,0.089,2.056,0.269
			s0.649,0.474,0.649,0.884s-0.172,0.836-0.518,1.279c-1.309-0.56-2.269-0.84-2.881-0.84c-0.521,0-0.856,0.171-1.006,0.513
			s-0.225,0.894-0.225,1.655v0.498h2.646c0.111,0.26,0.166,0.537,0.166,0.83c0,0.248-0.045,0.414-0.137,0.498
			s-0.267,0.127-0.527,0.127h-2.148v4.199C49.761,126.042,49.777,126.931,49.81,127.765z"/>
		<path d="M58.325,129.298c-1.458,0-2.557-0.381-3.296-1.143s-1.108-1.865-1.108-3.311c0-1.803,0.448-3.202,1.343-4.194
			s2.153-1.489,3.774-1.489c1.458,0,2.555,0.381,3.291,1.143s1.104,1.865,1.104,3.311c0,1.803-0.446,3.202-1.338,4.194
			S59.946,129.298,58.325,129.298z M58.784,127.608c0.527,0,0.919-0.21,1.177-0.63s0.386-1.235,0.386-2.446
			c0-1.322-0.142-2.266-0.425-2.832s-0.731-0.85-1.343-0.85c-0.527,0-0.919,0.21-1.177,0.63s-0.386,1.235-0.386,2.446
			c0,1.322,0.142,2.266,0.425,2.832S58.172,127.608,58.784,127.608z"/>
		<path d="M65.972,124.396c0-2.956-0.013-4.811-0.039-5.566s-0.075-1.271-0.146-1.548s-0.197-0.456-0.376-0.537
			s-0.412-0.122-0.698-0.122c-0.117-0.267-0.176-0.534-0.176-0.801c0-0.273,0.103-0.448,0.308-0.522s0.861-0.112,1.968-0.112
			c0.69,0,1.162,0.028,1.416,0.083s0.399,0.158,0.435,0.308s0.054,0.361,0.054,0.635v7.51c0,1.862,0.016,3.209,0.049,4.043h1.25
			c0.111,0.215,0.166,0.456,0.166,0.723c0,0.228-0.047,0.387-0.142,0.479s-0.278,0.137-0.552,0.137h-4.775
			c-0.117-0.273-0.176-0.531-0.176-0.771c0-0.202,0.045-0.347,0.137-0.435s0.238-0.132,0.439-0.132h0.801
			C65.952,126.931,65.972,125.808,65.972,124.396z"/>
		<path d="M75.2,127.765h1.152c0.111,0.215,0.166,0.456,0.166,0.723c0,0.228-0.047,0.387-0.142,0.479s-0.278,0.137-0.552,0.137
			h-4.688c-0.111-0.273-0.166-0.531-0.166-0.771c0-0.202,0.045-0.347,0.137-0.435s0.238-0.132,0.439-0.132h0.801
			c0.033-0.833,0.049-1.722,0.049-2.666c0-1.439-0.011-2.394-0.034-2.866s-0.073-0.817-0.151-1.035s-0.199-0.355-0.361-0.41
			s-0.4-0.083-0.713-0.083c-0.111-0.182-0.166-0.394-0.166-0.635c0-0.365,0.15-0.589,0.449-0.674s0.908-0.127,1.826-0.127
			c0.69,0,1.161,0.026,1.411,0.078s0.394,0.155,0.43,0.308s0.054,0.366,0.054,0.64v4.805
			C75.148,126.042,75.167,126.931,75.2,127.765z M73.413,117.999c-0.586,0-1.009-0.112-1.27-0.337s-0.391-0.542-0.391-0.952
			c0-0.43,0.166-0.783,0.498-1.06s0.804-0.415,1.416-0.415c0.625,0,1.068,0.119,1.328,0.356s0.391,0.548,0.391,0.933
			c0,0.423-0.156,0.775-0.469,1.055S74.103,117.999,73.413,117.999z"/>
		<path d="M81.987,129.298c-1.458,0-2.557-0.381-3.296-1.143s-1.108-1.865-1.108-3.311c0-1.803,0.448-3.202,1.343-4.194
			s2.153-1.489,3.774-1.489c1.458,0,2.555,0.381,3.291,1.143s1.104,1.865,1.104,3.311c0,1.803-0.446,3.202-1.338,4.194
			S83.608,129.298,81.987,129.298z M82.446,127.608c0.527,0,0.919-0.21,1.177-0.63s0.386-1.235,0.386-2.446
			c0-1.322-0.142-2.266-0.425-2.832s-0.731-0.85-1.343-0.85c-0.527,0-0.919,0.21-1.177,0.63s-0.386,1.235-0.386,2.446
			c0,1.322,0.142,2.266,0.425,2.832S81.834,127.608,82.446,127.608z"/>
	</g>
</g>
<line fill="none" stroke="#231815" stroke-miterlimit="10" x1="97" y1="122.5" x2="136" y2="122.5"/>
</svg>
