<?xml version="1.0" encoding="utf-8"?>
<!-- Generator: Adobe Illustrator 17.0.0, SVG Export Plug-In . SVG Version: 6.00 Build 0)  -->
<!DOCTYPE svg PUBLIC "-//W3C//DTD SVG 1.1//EN" "http://www.w3.org/Graphics/SVG/1.1/DTD/svg11.dtd">
<svg version="1.1" id="圖層_1" xmlns="http://www.w3.org/2000/svg" xmlns:xlink="http://www.w3.org/1999/xlink" x="0px" y="0px"
	 width="410px" height="185px" viewBox="0 0 410 185" enable-background="new 0 0 410 185" xml:space="preserve">
<path fill="#18EDCE" d="M-1116.805-24.313c0,0,180.1-89.747,279.854,18.184s131.489,72.151,195.381,136.043
	c80.647,80.647,97.624,230.556-215.159,338.899S-1365.817,131.446-1116.805-24.313z"/>
<path fill="#18EDCE" d="M-2380.805,20.687c0,0,180.1-89.747,279.854,18.184c99.753,107.931,131.489,72.151,195.381,136.043
	c80.647,80.647,97.624,230.556-215.158,338.899C-2433.512,622.155-2629.817,176.446-2380.805,20.687z"/>
<text transform="matrix(1 0 0 1 -458.0026 538.9943)" font-family="'Courier-Bold'" font-size="13">Typography </text>
<text transform="matrix(1 0 0 1 -458.0026 504.1541)" font-family="'Courier-Bold'" font-size="13">Lllustration</text>
<text transform="matrix(1 0 0 1 -458.0026 434.2574)" font-family="'Courier-Bold'" font-size="13">Website</text>
<text transform="matrix(1 0 0 1 -458.003 469.3297)" font-family="'Courier-Bold'" font-size="13">Graphic</text>
<g>
	<g>
		<path d="M-1321.061-380.061c-6.767,6.698-7.488,14.667-0.224,21.251c7.226,6.549,17.947,8.303,27.333,8.443
			c23.941,0.358,48.197-11.667,67.448-24.932c14.233-9.808,27.739-21.525,38.801-34.811c5.068-6.086,10.1-13.084,11.719-20.984
			c0.621-3.03,0.38-12.757-4.553-12.518c-4.461,0.216-4.11,11.388-4.237,14.108c-0.14,3.011-0.19,6.095,0.201,9.091
			c0.735,5.633,3.797,11.336,5.711,16.649c2.242,6.224,4.02,12.647,3.553,19.315c-0.207,2.961-0.898,6.569-2.356,9.201
			c-1.031,1.861-4.114-3.561-4.508-4.215c-4.996-8.294-8.638-17.308-15.581-24.291c-7.495-7.538-16.862-6.296-25.416-1.295
			c-6.252,3.655-7.885,10.637-1.773,15.301c19.492,14.875,41.028-4.893,59.914-9.846c2.958-0.776,5.984-0.994,9.028-0.907
			c-0.5-0.5-1-1-1.5-1.5c0.166,2.699,0.834,5.3,1,8c0.099,1.607,2.606,2.143,2.946,0.399c0.746-3.822,2.838-7.22,7.104-7.272
			c5.246-0.064,5.204,5.967,4.004,9.475c-0.589,1.72,1.811,2.447,2.742,1.156c2.328-3.23,5.712-5.374,9.458-6.603
			c1.438-0.472,3.019-0.724,4.521-0.456c2.771,0.495,0.17,4.362-0.569,5.545c-0.889,1.422,1.3,3.176,2.356,1.818
			c2.034-2.615,11.257-13.41,12.307-4.732c0.77,6.358-3.576,13.017-7.429,17.61c-1.226,1.462,0.711,3.489,2.121,2.121
			c2.479-2.404,5.464-4.79,6.82-0.358c1.303,4.256,0.852,9.213,0.564,13.582c-0.53,8.039-1.202,17.426-4.167,25.022
			c-4.955,12.691-10.78,25.115-17.904,36.739c-6.515,10.632-16.578,25.508-30.374,26.453c0.482,0.367,0.964,0.734,1.446,1.101
			c-3.282-10.853,6.212-22.466,12.649-30.16c8.767-10.477,19.072-19.658,29.407-28.546c8.907-7.659,17.982-15.107,26.931-22.714
			c10.322-8.775,20.088-19.751,19.067-34.182c-0.044-0.618-0.42-1.332-1.101-1.446c-7.6-1.277-15.19,3.667-19.527,9.575
			c-4.179,5.694-2.771,14.147,4.277,16.571c9.792,3.367,30.647-16.56,18.482-22.63c-4.881-2.436-12.047-1.755-16.855,0.478
			c-5.78,2.684-2.371,7.815,1.334,10.45c7.801,5.547,18.161,5.72,27.273,4.401c10.469-1.515,20.743-4.752,30.145-9.614
			c1.455-0.752,2.857-1.598,4.23-2.489c1.616-1.049,0.114-3.647-1.514-2.59c-11.545,7.494-26.288,11.74-39.973,12.321
			c-7.114,0.302-14.306-1.066-19.968-5.609c-5.128-4.114,3.556-5.514,6.476-5.705c3.717-0.243,10.059-0.053,9.113,5.092
			c-1.017,5.533-7.002,10.346-11.882,12.378c-7.515,3.129-12.909-3.711-9.11-10.66c2.892-5.29,10.556-10.11,16.703-9.077
			c-0.367-0.482-0.734-0.964-1.101-1.446c1.17,16.535-12.649,27.64-24.242,37.077c-9.094,7.403-18.014,15.098-26.805,22.861
			c-10.118,8.934-19.961,18.37-28.087,29.19c-5.588,7.441-11.737,17.602-8.813,27.272c0.184,0.608,0.775,1.147,1.446,1.101
			c14.754-1.011,25.059-15.506,32.295-26.868c4.638-7.282,8.571-15.012,12.2-22.837c2.561-5.522,5.567-11.367,7.204-17.251
			c2.795-10.043,4.161-21.279,3.947-31.679c-0.071-3.455-0.223-8.649-3.257-10.986c-3.254-2.506-7.152,0.833-9.45,3.061
			c0.707,0.707,1.414,1.414,2.121,2.121c4.934-5.883,10.921-15.503,7.323-23.451c-3.764-8.315-14.11,3.327-16.444,6.329
			c0.785,0.606,1.571,1.212,2.356,1.818c2.214-3.54,3.815-9.668-2.25-10.118c-6.329-0.469-12.764,3.641-16.34,8.604
			c0.914,0.385,1.828,0.771,2.742,1.156c1.811-5.292,0.874-11.209-5.073-13.018c-6.141-1.868-10.78,3.893-11.82,9.221
			c0.982,0.133,1.964,0.266,2.946,0.399c-0.166-2.699-0.834-5.3-1-8c-0.051-0.834-0.644-1.475-1.5-1.5
			c-22.558-0.649-43.276,25.652-65.761,12.353c-6.462-3.822-4.099-8.852,1.41-12.073c6.687-3.909,13.578-4.265,19.61,0.787
			c7.758,6.497,11.426,16.925,16.512,25.367c2.562,4.253,7.674,8.322,10.062,1.424c4.185-12.088,0.283-23.493-4.019-34.922
			c-1.582-4.202-3.428-8.379-3.621-12.905c-0.164-3.844,0.037-7.726,0.451-11.548c0.174-1.607,0.469-3.202,0.938-4.75
			c0.458-1.511,0.197-0.384,0.066-0.561c0.518,0.697,0.867,1.617,1.163,2.413c1.396,3.75,0.056,8.08-1.442,11.574
			c-5.225,12.18-15.977,22.258-25.596,31.028c-9.288,8.468-19.382,16.25-30.095,22.82c-15.645,9.594-33.462,17.194-51.876,18.892
			c-8.432,0.778-17.391-0.062-25.139-3.638c-3.65-1.685-7.022-4.172-9.195-7.589c-3.054-4.802,0.127-9.682,3.594-13.113
			C-1317.563-379.302-1319.685-381.422-1321.061-380.061L-1321.061-380.061z"/>
	</g>
</g>
<g>
	<g>
		<path d="M-1408.061-491.939c6.047,6.074,15.496,5.532,23.27,4.069c12.413-2.337,24.276-8.266,34.965-14.801
			c11.13-6.804,21.706-15.17,29.974-25.314c5.719-7.017,10.98-16.027,9.299-25.414c-0.218-1.215-2.241-1.536-2.742-0.358
			c-1.826,4.294-1.546,9.224-1.291,13.784c0.39,6.986,1.346,13.937,1.973,20.904c0.874,9.713,3.837,32.009-10.386,33.569
			c0.482,0.367,0.964,0.734,1.446,1.101c-1.061-7.578,0.439-16.273-4.229-22.858c-4.437-6.26-11.556-7.586-18.71-7.535
			c-3.32,0.023-12.297,0.389-12.522,5.324c-0.191,4.18,5.195,7.394,8.826,8.024c4.913,0.852,10.173-0.015,15.056-0.663
			c6.412-0.85,12.785-1.963,19.21-2.72c5.044-0.594,10.691-1.328,15.649,0.137c5.533,1.635,1.963,7.766-0.021,10.933
			c0.932,0.252,1.863,0.505,2.795,0.757c0.181-5.492,3.319-5.808,7.899-6.554c-0.633-0.482-1.266-0.964-1.899-1.446
			c0.231,3.552,1.615,7.01,1.054,10.601c-0.292,1.868,2.483,2.719,2.893,0.798c1.151-5.394,4.339-8.911,9.311-11.104
			c-0.734-0.299-1.469-0.598-2.203-0.896c1.632,5.926,0.102,11.612-2.849,16.844c0.932,0.252,1.863,0.505,2.795,0.757
			c0.275-5.662,4.126-8.013,9.5-7.5c-0.5-0.5-1-1-1.5-1.5c0.126,3.224,0.805,6.403,0.054,9.601c0.982,0.133,1.964,0.266,2.946,0.399
			c-0.461-10.889,11.7-10.317,19.5-9.5c-0.432-0.752-0.864-1.505-1.295-2.257c-4.161,5.728-10.671,8.704-16.462,12.462
			c-1.456,0.945-0.512,3.082,1.156,2.742c7.682-1.566,12.829,0.933,13.058,9.138c0.199,7.127-2.308,14.423-4.646,21.057
			c-4.082,11.583-8.406,22.974-12.146,34.693c-5.51,17.264-11.209,34.579-19.032,50.958c-5.179,10.842-13.797,28.914-27.632,30.207
			c0.482,0.367,0.964,0.734,1.446,1.101c-3.608-10.762,8.049-24.243,13.97-32.084c7.525-9.965,16.438-19.064,23.181-29.598
			c22.414-35.016,41.366-72.298,67.464-104.858c0.938-1.171,0.084-2.817-1.459-2.507c-17.374,3.486-6.146,29.235,7.686,24.184
			c16.265-5.939-8.971-31.839-16.582-14.495c-0.41,0.935-0.084,1.841,0.896,2.203c18.495,6.833,36.755,13.709,56.798,11
			c1.699-0.23,1.258-2.98-0.399-2.946c-1.77,0.036-3.145,0.503-4.757,1.205c-1.77,0.77-0.241,3.354,1.514,2.59
			c1.03-0.579,2.11-0.844,3.243-0.795c-0.133-0.982-0.266-1.964-0.399-2.946c-19.389,2.621-37.354-4.406-55.202-11
			c0.299,0.734,0.598,1.469,0.896,2.203c5.697-12.982,24.573,7.273,11.75,10.535c-4.572,1.163-8.707-3.777-10.496-7.275
			c-2.881-5.631-0.123-10.372,5.85-11.57c-0.487-0.836-0.973-1.671-1.459-2.507c-26.625,33.218-45.327,71.376-68.743,106.708
			c-7.531,11.364-17.259,21.247-25.279,32.278c-5.696,7.835-14.857,20.055-11.364,30.473c0.198,0.592,0.765,1.165,1.446,1.101
			c13.6-1.271,22.07-16.034,27.77-26.806c8.786-16.606,14.74-34.705,20.494-52.53c4.126-12.779,8.55-25.315,13.149-37.916
			c3.136-8.592,10.833-29.004-1.159-34.406c-3.33-1.5-7.199-0.992-10.653-0.288c0.385,0.914,0.771,1.828,1.156,2.742
			c6.303-4.09,13.021-7.319,17.538-13.538c0.74-1.018-0.292-2.152-1.295-2.257c-9.689-1.015-23.043-0.314-22.5,12.5
			c0.07,1.644,2.546,2.103,2.946,0.399c0.818-3.486,0.192-6.871,0.054-10.399c-0.034-0.877-0.661-1.42-1.5-1.5
			c-7.181-0.686-12.146,3.204-12.5,10.5c-0.073,1.507,2.079,2.027,2.795,0.757c3.343-5.927,4.992-12.471,3.151-19.156
			c-0.279-1.013-1.332-1.281-2.203-0.896c-5.668,2.5-9.391,6.814-10.689,12.896c0.964,0.266,1.929,0.532,2.893,0.798
			c0.626-4-0.687-7.416-0.946-11.399c-0.068-1.045-0.901-1.609-1.899-1.446c-6.359,1.036-9.871,2.458-10.101,9.446
			c-0.051,1.544,2.031,1.977,2.795,0.757c3.853-6.149,5.567-13.838-3.327-15.732c-9.886-2.105-21.289,1.002-31.084,2.44
			c-4.917,0.722-9.897,1.441-14.879,1.371c-3.932-0.055-13.328-4.738-5.732-6.889c7.461-2.113,16.474-0.896,21.907,4.791
			c5.214,5.457,3.409,15.778,4.373,22.661c0.084,0.6,0.853,1.166,1.446,1.101c13.385-1.468,14.252-16.602,13.976-27.265
			c-0.205-7.915-1.257-15.792-2.029-23.663c-0.561-5.721-1.991-13.314,0.348-18.815c-0.914-0.119-1.828-0.239-2.742-0.358
			c1.586,8.856-4.327,17.489-9.702,23.918c-7.621,9.115-17.278,16.537-27.276,22.853c-9.817,6.201-20.504,11.387-31.773,14.305
			c-7.385,1.912-17.752,3.481-23.741-2.535C-1407.306-495.433-1409.427-493.311-1408.061-491.939L-1408.061-491.939z"/>
	</g>
</g>
<path fill="none" stroke="#231815" stroke-linejoin="round" stroke-miterlimit="10" d="M-1075.614,360.897
	c11.067-2.39,24.901,4.779,17.984,15.533c-6.917,13.143-23.518,2.39-35.968,4.779c-17.984,3.585-8.3,11.948-23.518,16.728
	c-11.067,3.585-26.285-9.559-27.668,7.169c-15.217,1.195-16.601-15.533-6.917-22.702c1.383,2.39,5.534,4.779,6.917,7.169
	c-8.3-15.533,4.15-33.456,8.3-48.989c2.767-15.533,5.534-35.845,1.383-51.378c-2.767-17.923-15.217-32.261-35.968-38.235
	c-12.451-3.585-47.036-1.195-41.502,17.923c2.767-3.585,8.3-7.169,12.451-11.948c2.767,17.923,33.202,11.948,22.134,0
	s-22.134,17.923,6.917,13.143c2.767,17.923-27.668,1.195-35.968,7.169c-13.834,8.364,20.751,14.338,29.051,1.195
	c-24.901,13.143-34.585-9.559-33.202-26.287c0-27.481,22.134-19.117,49.802-21.507c1.383-9.559-12.451-14.338-22.134-15.533
	c-13.834-1.195-20.751,2.39-33.202,9.559c-6.917-9.559,15.217-26.287,24.901-31.066c16.601-8.364,38.735-13.143,56.719-8.364
	c1.383-13.143,0-19.117,5.534-32.261c4.15-10.754,9.684-20.312,11.067-33.456c1.383,10.754-1.383,39.43,5.534,47.794
	c11.067,14.338,29.051,2.39,40.118,20.312c1.383-47.794,9.684-76.47-35.968-107.536c-33.202-21.507-51.186-71.691-94.071-29.871
	c-13.834,13.143-19.368,28.676-35.968,40.625c-13.834,10.754-30.435,16.728-38.735,32.261
	c-15.217,25.092-15.217,60.937-19.368,87.223c-15.217,89.613-49.802,187.59,70.553,232.994c-1.383-5.974,1.383-8.364-2.767-14.338
	c20.751,2.39,40.119,7.169,55.336,13.143c19.368,8.364,29.051,20.312,37.352,37.04c-9.684-16.728-26.285-26.287-38.735-40.625
	c-11.067-13.143-15.217-32.261-19.368-47.794c-6.917-28.676-12.451-57.352-15.217-86.029c16.601,48.989,2.767,96.782,47.035,137.407
	c12.451-10.754,16.601-1.195,29.051-1.195c20.751,0,15.217-9.559,30.435-13.143c5.534-1.195,29.051,3.585,37.352,3.585
	c13.834-1.195,24.901-2.39,38.735-5.974c-23.518,22.702-88.537,16.728-120.355,16.728c22.134,14.338,62.253,14.338,88.537,9.559
	c-12.451,2.39-29.051,7.169-35.968,16.728c4.15,0,8.3,3.585,11.067,4.779c-8.3,8.364-26.285,9.559-38.735,14.338
	c24.901,44.209,94.071,43.014,136.956,27.481c23.518-8.364,34.585-25.092,47.035-43.014c9.684-13.143,37.352-37.04,34.585-52.573
	c-26.284,0-41.502,15.533-65.02,20.312c-1.383-11.948,11.067-26.287,12.451-39.43c2.767-20.312-2.767-40.625-4.15-60.937
	c-2.767-35.845,0-72.885,1.383-108.731c1.383-40.625-20.751-13.143-51.186-15.533c-15.217-1.195-84.387-15.533-76.087,8.364
	c15.217-1.195,109.288-4.779,99.605,17.923c-31.818-13.143-66.403-8.364-85.771,17.923c24.901-4.779,58.103-21.507,84.387-9.559
	c-6.917,7.169-19.368,1.195-29.051,2.39s-16.601,15.533-24.901,1.195c19.368-10.754,8.3,11.948-9.684,15.533
	c17.984,8.364,55.336,4.779,63.636-14.338c5.534-10.754,1.383-46.599-1.383-58.547c-11.067,1.195-26.284-2.39-35.968-4.779
	c-17.984-4.779-26.285-7.169-35.968-25.092c0,0,5.534-33.456,1.383-54.963c-4.15-21.507-98.221-64.521-74.703-87.223
	s213.043-56.158,312.648,139.797s28.161,235.87-76.087,249.722"/>
<g>
	<g>
		<path fill="#231815" d="M-1246.141-297.286c-12.551,1.988-23.235,8.406-33.899,14.943c-9.375,5.747-21.933,13.807-33.473,10.757
			c-7.983-2.11-13.714-8.945-21.289-11.948c-8.071-3.201-11.733,5.389-13.403,11.68c0.982,0.133,1.964,0.266,2.946,0.399
			c0.007-5.211,0.189-10.241,1.688-15.276c-0.982-0.133-1.964-0.266-2.946-0.399c-0.068,4.862-0.537,11.294-5.271,14.011
			c-2.966,1.702-6.777,0.368-9.426-1.279c-2.183-1.357-4.982-4.146-4.452-6.989c0.803-4.306,8.894-4.205,11.94-4.242
			c-0.5-0.5-1-1-1.5-1.5c1.239,12.381-14.081,14.613-23.282,15.97c0.486,0.836,0.973,1.671,1.459,2.507
			c4.778-5.32,12.792-18.847,0.415-20.736c-11.724-1.79-21.552,9.741-25.564,19.277c-0.663,1.576,1.97,2.647,2.742,1.156
			c4.48-8.661,4.683-18.224,4.87-27.762c0.225-11.479,1.351-22.608,12.009-29.175c-0.752-0.432-1.505-0.863-2.257-1.295
			c-1.78,18.395-15.051,40.275-32.439,47.586c-9.278,3.901-20.123,1.604-27.182-5.512c-5.66-5.706-6.022-14.15-3.873-21.451
			c3.902-13.257,19.634-28.425,33.851-19.519c2.524,1.581,5.566,4.462,5.901,7.556c0.281,2.592-2.607,4.061-4.509,4.656
			c-1.992,0.623-0.408,1.522,0.011,1.048c2.372-2.686,5.375-4.84,7.878-7.412c2.52-2.59,7.683-9.072,3.223-12.228
			c-3.386-2.396-9.958-1.268-13.728-1.016c-8.199,0.549-16.363,1.708-24.507,2.776c-8.322,1.092-16.644,2.238-25.009,2.947
			c-3.107,0.264-11.85,1.988-14.388-0.636c-1.347-1.392-3.466,0.731-2.121,2.121c2.499,2.583,7.88,1.962,11.066,1.855
			c7.464-0.248,14.917-1.281,22.317-2.227c8.291-1.06,16.57-2.223,24.88-3.129c5.827-0.635,12.175-1.607,18.024-0.704
			c6.732,1.039-5.107,11.251-7.263,13.178c-2.799,2.501-6.088,7.406,0.414,6.318c2.977-0.498,6.235-3.331,6.584-6.42
			c0.492-4.353-2.523-7.743-5.808-10.226c-5.254-3.972-11.49-5.064-17.806-3.266c-10.664,3.035-18.62,13.376-21.902,23.529
			c-3.768,11.656,0.465,23.262,11.174,29.27c28.901,16.213,55.846-24.625,58.213-49.095c0.111-1.146-1.352-1.853-2.257-1.295
			c-20.917,12.889-8.317,39.381-17.955,58.013c0.914,0.385,1.828,0.771,2.742,1.156c3.483-8.277,10.738-16.53,20.281-17.196
			c11.383-0.795,3.383,11.806-0.146,15.737c-1.07,1.191,0.004,2.722,1.459,2.507c10.657-1.572,26.888-4.838,25.484-18.863
			c-0.081-0.805-0.621-1.511-1.5-1.5c-5.096,0.063-12.525,0.458-14.719,6.046c-1.502,3.826,1.954,8.064,4.805,10.138
			c3.577,2.602,8.652,4.201,12.872,2.156c6.169-2.991,7.165-10.738,7.25-16.84c0.024-1.722-2.468-2.005-2.946-0.399
			c-1.573,5.286-1.788,10.587-1.795,16.074c-0.002,1.693,2.51,2.044,2.947,0.399c0.936-3.525,2.354-9.853,6.926-10.153
			c3.365-0.221,6.986,2.736,9.605,4.496c6.333,4.256,13.097,9.409,21.166,8.65c23.207-2.182,39.311-22.692,62.272-26.329
			C-1243.437-294.695-1244.249-297.586-1246.141-297.286L-1246.141-297.286z"/>
	</g>
</g>
<path fill="none" stroke="#231815" stroke-width="2" stroke-linejoin="round" stroke-miterlimit="10" d="M-482.521,94.646
	c-4.915,56.448-80.496,81.891-131.148,80.703c-0.922-0.947-1.856-1.881-2.802-2.802c-0.223,0.351-0.535-10.531-0.145-10.083
	c49.773-28.897,90.515,10.897,136.609,24.095c0.725,0.034-5.569-7.502-5.865-7.27c-10.813,14.496-33.518,41.042-44.221,61.286
	c-51.854-42.252-98.126,40.934-108.933,86.263c23.37-1.746,25.619-4.141,41.315-15.987c-14.509-4.066-23.951-9.948-32.917-14.003
	c32.31,20.52,53.509,12.255,52.4-28.025c-11.807,9.551-12.712,11.386-21.428,24.23c0.947,0.922,1.881,1.856,2.802,2.802
	c36.737,4.265,54.678-18.756,51.99-52.51c7.901,29.765,14.561,60.771,23.677,88.942c5.9-5.345,16.726-9.774,24.31-18.535
	c-34.116,33.888-25.339,109.797-72.53,133.456c-45.106,22.614-97.331-46.776-117.261,28.15c-0.059,0.078,18.118-0.319,18.75,0
	c-13.05-14.274-20.881-9.86-38.233-18.77c1.662,10.91-4.736,28.986-3.436,41.948c-2.254-0.348,3.745,3.445,2.444-0.903
	c-27.597,4.519-16.728-1.21-44.286,17.983c-35.411-42.536-0.168-120.345-33.624-155.349
	c-49.254-51.532-92.102,26.665-113.989,70.317c35.419-13.271,60.691-31.952,57.95-77.118c-8.771,39.53-0.598,33.656,22.485,49.039
	c6.045-26.7,8.38-22.856-5.67-44.696c-17.477,17.069-14.776,19.052-16.471,44.621c56.443,40.564-39.252,68.746-78.389,64.377
	c-0.922-0.947-1.856-1.881-2.802-2.802c-8.696-90.128,38.603-116.555,103.397-156.29c-30.182-46.476-81.479,11.361-84.06-47.922
	c9.394-3.608,69.161-14.744,55.761,14.212c-13.853,29.935-37.789,7.379-58.917,25.222c-31.738,26.803-55.725,82.438-89.126,94.796
	c-25.483-79.032,84.399-116.169,144.826-113.999c-0.23,2.767,1.747,11.797,3.416,13.669c-77.196,59.427-101.4,12.025-126.86,125.752
	c-61.236-85.447,27.078-136.318,95.978-159.597c29.751-10.052,34.337,2.951,70.466-22.918c31.522-22.57,28.219-73.167,77.92-66.816
	c130.165,16.632,30.02,208.379,67.818,274.418c5.12-1.582,18.687-0.467,24.24,0c-52.927-52.879-69.571-53.44-27.601-147.549
	c9.451-21.193,26.682-62.844,44.226-79.093c20.097-18.613,58.131-14.36,75.722-33.575
	C-444.653,74.991-619.237,28.807-706.919,46.739c-147.504,30.166-115.519,151.891-244.702,203.434
	c-27.223,10.862-54.109,18.121-83.257,17.803c-59.901-137.903,189.021-104.826,251.281-108.114
	c186.249-9.836,238.005-311.153-4.594-204.761c-43.96,19.279-191.889,113.773-159.596,182.341
	c27.335,58.04,151.163,10.168,167.605-42.771c37.044-119.264-138.148-54.059-189.97-28.05"/>
<g>
	<text transform="matrix(4.489659e-11 1 -1 4.489659e-11 -1581.7217 271.0271)" font-family="'Courier-Bold'" font-size="18">email:anzo2255@gmaill.com</text>
</g>
<g>
	<text transform="matrix(4.489659e-11 1 -1 4.489659e-11 -322 -96.0001)" font-family="'Courier-Bold'" font-size="18">about</text>
</g>
<line fill="none" stroke="#231815" stroke-miterlimit="10" x1="-382" y1="431.5" x2="-313" y2="431.5"/>
<line fill="none" stroke="#231815" stroke-miterlimit="10" x1="-382" y1="462.5" x2="-313" y2="462.5"/>
<line fill="none" stroke="#231815" stroke-miterlimit="10" x1="-348" y1="499.5" x2="-313" y2="499.5"/>
<line fill="none" stroke="#231815" stroke-miterlimit="10" x1="-365" y1="536.5" x2="-313" y2="536.5"/>
<text transform="matrix(1 0 0 1 -1363.3049 -409.9383)" font-family="'Courier-Bold'" font-size="18">Anzo</text>
<text transform="matrix(1 0 0 1 -1584.9995 -54.7446)"><tspan x="0" y="0" font-family="'Kefa-Bold'" font-size="58.6325">Anzo </tspan><tspan x="0" y="56.213" font-family="'Kefa-Bold'" font-size="58.6325">Chen</tspan></text>
<g>
	<text transform="matrix(1 0 0 1 -1580.7217 33.1025)" font-family="'Kefa-Bold'" font-size="20">portfolio</text>
</g>
<line fill="none" stroke="#231815" stroke-miterlimit="10" x1="-1489" y1="26.5" x2="-1450" y2="26.5"/>
<text transform="matrix(1 0 0 1 -1845.9995 -54.7446)"><tspan x="0" y="0" font-family="'Kefa-Bold'" font-size="58.6325">Anzo </tspan><tspan x="0" y="56.213" font-family="'Kefa-Bold'" font-size="58.6325">Chen</tspan></text>
<g>
	<text transform="matrix(1 0 0 1 -1841.7217 33.1025)" font-family="'Kefa-Bold'" font-size="20">portfolio</text>
</g>
<line fill="none" stroke="#231815" stroke-miterlimit="10" x1="-1750" y1="26.5" x2="-1711" y2="26.5"/>
<g id="logo">
	<g>
		<path d="M8.908,100.199c-2.844,5.903-4.517,13.157-0.098,18.752c4.383,5.55,12.175,7.148,18.819,7.844
			c22.874,2.393,47.389-5.236,68.113-14.172c22.679-9.779,46.047-24.615,58.456-46.67c5.529-9.826,8.024-21.092,6.653-32.309
			c-0.746-6.102-2.65-11.942-5.204-17.515c-1.333-2.908-2.773-6.598-5.458-8.493c-2.417-1.705-6.813-3.799-8.857-0.31
			c-1.6,2.731,0.253,4.792,1.549,7.181c2.469,4.552,4.578,9.296,6.502,14.1c3.875,9.676,6.66,19.774,8.752,29.974
			c4.467,21.779,5.083,44.731,0.545,66.543c0.964,0,1.929,0,2.893,0c-4.416-12.567-11.13-25.419-22.321-33.195
			c-11.467-7.968-23.51-2.36-31.713,7.242c-0.644,0.754-0.556,2.328,0.662,2.507c19.683,2.895,39.096-1.028,58.601-3.436
			c4.99-0.616,9.995-1.043,15.017-1.269c4.448-0.2,7.466-0.978,9.227,3.763c2.104,5.662,1.542,13.35-0.195,19.041
			c0.964,0,1.929,0,2.893,0c-0.751-4.473-1.999-13.502,2.206-16.621c3.884-2.881,6.195,3.478,6.751,6.008
			c0.66,3.002,0.611,6.162,0.706,9.22c0.032,1.018,1.298,2.026,2.257,1.295c2.899-2.208,3.808-5.515,4.819-8.885
			c0.719-2.397,3.31-9.134,6.743-4.656c1.726,2.252,0.827,6.095-0.386,8.34c-0.791,1.463,1.167,3.108,2.356,1.818
			c1.259-1.367,2.538-2.853,3.659-0.695c0.991,1.908,1.113,4.455,1.298,6.542c0.325,3.683,0.272,7.443-0.033,11.126
			c-1.307,15.788-6.471,31.59-11.748,46.433c0.914-0.119,1.828-0.239,2.742-0.358c-5.692-11.115-0.348-26.574,3.758-37.334
			c4.301-11.272,10.851-25.184,21.123-32.25c-0.505-0.863-1.009-1.727-1.514-2.59c-3.657,2.608-5.631,5.589-5.758,10.15
			c-0.019,0.689,0.477,1.241,1.101,1.446c6.322,2.079,13.305-0.585,13.673-7.878c0.063-1.246-1.295-1.721-2.257-1.295
			c-1.094,0.484-2.189,0.969-3.283,1.453c-0.842,0.373-1.001,1.779-0.304,2.356c3.437,2.841,6.559,3.423,10.527,1.253
			c0.744-0.407,0.905-1.343,0.538-2.052c-7.014-13.576-7.281-30.921,0.371-44.317c2.978-5.214,7.853-9.69,14.077-10.057
			c8.612-0.508,15.549,7.715,20.011,13.974c1.112,1.56,3.715,0.066,2.59-1.514c-7.334-10.304-20.47-17.64-32.064-9.129
			c-14.581,10.704-12.356,33.744-8.616,48.935c2.302,9.347,6.341,16.478,16.561,17.937c6.942,0.991,12.929-2.36,17.942-6.861
			c10.619-9.536,18.652-25.098,21.748-38.961c0.429-1.922,0.964-4.369-0.346-6.05c-2.419-3.105-6.017,4.243-6.582,5.724
			c-4.889,12.801,5.13,28.824-3.212,40.692c0.932,0.252,1.863,0.505,2.795,0.757c0.652-6.766,4.193-13.841,12.259-12.159
			c4.681,0.976,2.658,9.422,2.165,12.464c-0.166,1.025,0.407,1.796,1.446,1.899c6.032,0.596,13.355,2.833,19.217,0.329
			c5.744-2.453,9.468-9.324,8.729-15.51c-0.414-3.464-3.813-5.68-7.074-4.077c-4.39,2.158-7.218,7.417-7.249,12.239
			c-0.05,7.625,8.853,9.777,14.845,8.679c9.562-1.753,12.743-11.066,10.422-19.593c-0.463-1.702-2.827-1.243-2.946,0.399
			c-0.47,6.476-1.488,12.814-3.243,19.067c0.964,0.266,1.929,0.532,2.893,0.798c0.864-3.947,2.13-9.866,6.366-11.599
			c5.144-2.104,7.805,6.356,8.498,9.859c0.987,4.987,3.701,7.528,8.771,7.533c10.986,0.01,22.366-6.581,32.159-10.949
			c1.764-0.787,0.237-3.371-1.514-2.59c-5.749,2.564-11.463,5.172-17.382,7.33c-5.228,1.906-16.562,6.836-18.87-0.95
			c-1.487-5.015-3.105-13.43-10.255-13.37c-6.956,0.058-9.453,8.395-10.666,13.938c-0.412,1.881,2.368,2.669,2.893,0.798
			c1.827-6.512,2.861-13.126,3.35-19.864c-0.982,0.133-1.964,0.266-2.946,0.399c1.584,5.82,0.723,11.599-4.888,14.713
			c-3.846,2.134-9.677,2.155-12.974-0.995c-1.862-1.778-1.676-4.444-1.014-6.703c0.718-2.447,2.378-4.747,4.489-6.165
			c3.739-2.511,3.477,3.363,3.082,5.212c-2.701,12.646-15.49,8.984-24.692,8.075c0.482,0.633,0.964,1.266,1.446,1.899
			c0.952-5.862,2.519-14.741-5.219-16.354c-9.672-2.017-14.331,7.293-15.098,15.252c-0.156,1.625,2.026,1.852,2.795,0.757
			c5.275-7.505,3.496-17.81,2.807-26.354c-0.379-4.695-0.719-9.516,0.422-14.132c0.272-1.1,0.762-2.109,1.315-3.089
			c0.285-0.384,0.57-0.768,0.854-1.153c0.986-0.583,0.841-0.985-0.433-1.207c0.255,0.791-0.057,1.934-0.198,2.713
			c-1.248,6.896-4.455,13.609-7.677,19.762c-3.986,7.611-9.031,15.25-15.924,20.527c-7.762,5.943-19.4,5.566-24.325-3.811
			c-2.697-5.136-3.632-11.623-4.525-17.281c-0.959-6.08-1.062-12.38-0.118-18.466c1.188-7.656,4.712-15.504,11.695-19.445
			c6.325-3.57,13.795-1.454,19.19,2.77c2.456,1.923,4.504,4.348,6.304,6.877c0.863-0.505,1.727-1.009,2.59-1.514
			c-4.766-6.686-11.294-14.27-20.019-15.305c-6.825-0.809-12.602,2.649-16.796,7.818c-11.246,13.861-10.676,35.72-2.826,50.916
			c0.179-0.684,0.359-1.368,0.538-2.052c-2.589,1.631-4.886,1.37-6.892-0.784c-0.101,0.785-0.202,1.571-0.304,2.356
			c1.094-0.484,2.189-0.969,3.283-1.453c-0.752-0.432-1.505-0.863-2.257-1.295c-0.274,5.416-5.605,6.389-9.876,4.985
			c0.367,0.482,0.734,0.964,1.101,1.446c0.097-3.463,1.49-5.575,4.273-7.559c1.555-1.109,0.092-3.695-1.514-2.59
			c-11.092,7.63-17.729,21.933-22.502,34.043c-4.545,11.53-9.537,27.769-3.455,39.645c0.637,1.243,2.338,0.777,2.742-0.358
			c5.827-16.39,11.676-34.091,12.068-51.646c0.121-5.393-1.095-24.629-10.258-14.68c0.785,0.606,1.571,1.212,2.356,1.818
			c2.504-4.633,2.645-12.06-3.243-13.997c-8.46-2.782-7.913,11.951-12.037,15.093c0.752,0.432,1.505,0.863,2.257,1.295
			c-0.173-5.563-0.445-21.356-10.219-18.513c-7.751,2.254-6.347,14.688-5.337,20.704c0.26,1.547,2.492,1.314,2.893,0
			c1.798-5.893,1.895-12.468,0.769-18.49c-0.481-2.575-1.566-4.993-3.358-6.905c-2.556-2.728-6.112-1.305-9.337-1.206
			c-24.398,0.747-48.306,8.419-72.82,4.812c0.221,0.836,0.441,1.671,0.662,2.507c8.097-9.479,18.252-13.6,29.152-6.026
			c9.932,6.901,15.985,19.608,19.867,30.655c0.456,1.296,2.568,1.56,2.893,0c5.322-25.579,3.638-52.265-2.675-77.508
			c-2.956-11.818-7.21-23.345-12.773-34.184c-0.634-1.235-1.31-2.449-1.986-3.662c1.092-0.411,2.184-0.821,3.276-1.232
			c1.3,0.74,2.268,1.748,2.903,3.021c0.855,1.479,1.635,3,2.384,4.534c1.563,3.202,2.79,6.554,3.755,9.981
			c7.037,24.981-8.018,47.258-26.748,62.337c-20.522,16.521-46.464,27.181-72.146,32.392c-10.275,2.085-21.033,3.307-31.493,2.014
			c-6.054-0.748-14.187-2.882-16.472-9.34c-1.47-4.155,0.081-8.789,1.9-12.564C12.334,99.979,9.748,98.457,8.908,100.199
			L8.908,100.199z"/>
	</g>
</g>
<rect x="-936" y="-357" fill="#B5B5B5" width="437" height="151"/>
</svg>
